<svg viewBox="0 0 800 800" xmlns="http://www.w3.org/2000/svg">
  <defs>
    <radialGradient id="bg" cx="50%" cy="46%" r="72%">
      <stop offset="0%" stop-color="#0d2f45"/>
      <stop offset="55%" stop-color="#1a5f7a"/>
      <stop offset="100%" stop-color="#04121c"/>
    </radialGradient>
    <path id="petal" d="M400,220 Q448,145.0 400,70 Q352,145.0 400,220 Z" fill="none" stroke="#7fd4f2" stroke-width="1.6" opacity="0.4"/>
  </defs>
  <rect width="800" height="800" fill="url(#bg)"/>
  <circle cx="400" cy="400" r="350" fill="none" stroke="#7fd4f2" stroke-width="1" opacity="0.28"/>
  <circle cx="400" cy="400" r="270" fill="none" stroke="#7fd4f2" stroke-width="1" opacity="0.28"/>
  <use href="#petal" transform="rotate(0 400 400)"/>
  <use href="#petal" transform="rotate(30 400 400)"/>
  <use href="#petal" transform="rotate(60 400 400)"/>
  <use href="#petal" transform="rotate(90 400 400)"/>
  <use href="#petal" transform="rotate(120 400 400)"/>
  <use href="#petal" transform="rotate(150 400 400)"/>
  <use href="#petal" transform="rotate(180 400 400)"/>
  <use href="#petal" transform="rotate(210 400 400)"/>
  <use href="#petal" transform="rotate(240 400 400)"/>
  <use href="#petal" transform="rotate(270 400 400)"/>
  <use href="#petal" transform="rotate(300 400 400)"/>
  <use href="#petal" transform="rotate(330 400 400)"/>
  <g transform="translate(400,400)">
<rect x="-70" y="-52" width="140" height="104" rx="12" fill="#0d2f45" stroke="#7fd4f2" stroke-width="3" opacity="0.95"/>
<line x1="-70" y1="-28" x2="70" y2="-28" stroke="#7fd4f2" stroke-width="2.5"/>
<circle cx="-54" cy="-40" r="4" fill="#7fd4f2"/>
<circle cx="-40" cy="-40" r="4" fill="#7fd4f2" opacity="0.7"/>
<circle cx="-26" cy="-40" r="4" fill="#7fd4f2" opacity="0.45"/>
<path d="M-34,-8 L-52,8 L-34,24" fill="none" stroke="#bfeaff" stroke-width="5" stroke-linecap="round" stroke-linejoin="round"/>
<path d="M34,-8 L52,8 L34,24" fill="none" stroke="#bfeaff" stroke-width="5" stroke-linecap="round" stroke-linejoin="round"/>
<line x1="10" y1="-12" x2="-10" y2="28" stroke="#bfeaff" stroke-width="5" stroke-linecap="round"/>
  </g>
</svg>
