<svg viewBox="0 0 800 800" xmlns="http://www.w3.org/2000/svg">
  <defs>
    <radialGradient id="bg" cx="50%" cy="46%" r="72%">
    <stop offset="0%" stop-color="#152258"/>
    <stop offset="55%" stop-color="#1f3a7a"/>
    <stop offset="100%" stop-color="#050818"/>
    </radialGradient>
    <path id="petal81556" d="M400,205 Q418,137.5 400,70 Q382,137.5 400,205 Z" fill="none" stroke="#9fc0f7" stroke-width="1.5" opacity="0.38"/>
    
    
  </defs>
  <rect width="800" height="800" fill="url(#bg)"/>
  <circle cx="400" cy="400" r="350" fill="none" stroke="#9fc0f7" stroke-width="1" opacity="0.28"/>
  <circle cx="400" cy="400" r="255" fill="none" stroke="#9fc0f7" stroke-width="1" opacity="0.28"/>
  <circle cx="400" cy="400" r="115" fill="none" stroke="#9fc0f7" stroke-width="1" opacity="0.28"/>
  <use href="#petal81556" transform="rotate(0.0 400 400)"/>
  <use href="#petal81556" transform="rotate(25.714285714285715 400 400)"/>
  <use href="#petal81556" transform="rotate(51.42857142857143 400 400)"/>
  <use href="#petal81556" transform="rotate(77.14285714285714 400 400)"/>
  <use href="#petal81556" transform="rotate(102.85714285714286 400 400)"/>
  <use href="#petal81556" transform="rotate(128.57142857142858 400 400)"/>
  <use href="#petal81556" transform="rotate(154.28571428571428 400 400)"/>
  <use href="#petal81556" transform="rotate(180.0 400 400)"/>
  <use href="#petal81556" transform="rotate(205.71428571428572 400 400)"/>
  <use href="#petal81556" transform="rotate(231.42857142857142 400 400)"/>
  <use href="#petal81556" transform="rotate(257.14285714285717 400 400)"/>
  <use href="#petal81556" transform="rotate(282.85714285714283 400 400)"/>
  <use href="#petal81556" transform="rotate(308.57142857142856 400 400)"/>
  <use href="#petal81556" transform="rotate(334.2857142857143 400 400)"/>
  
  <g transform="translate(400,400)">
    <path d="M-140,0 Q0,-80 140,0 Q0,80 -140,0 Z" fill="none" stroke="#dce8fb" stroke-width="2.4" opacity="0.9"/>
    <circle r="52" fill="#3a5ab8" opacity="0.9"/>
    <circle r="26" fill="#0a1030"/>
    <circle r="150" fill="none" stroke="#9fc0f7" stroke-width="1" opacity="0.3" stroke-dasharray="2 10"/>
  </g>
</svg>