<svg viewBox="0 0 800 800" xmlns="http://www.w3.org/2000/svg">
  <defs>
    <radialGradient id="bg" cx="50%" cy="46%" r="72%">
      <stop offset="0%" stop-color="#33184f"/>
      <stop offset="55%" stop-color="#532687"/>
      <stop offset="100%" stop-color="#0c0714"/>
    </radialGradient>
    <path id="petal" d="M400,220 Q448,145.0 400,70 Q352,145.0 400,220 Z" fill="none" stroke="#c9a8f0" stroke-width="1.6" opacity="0.4"/>
  </defs>
  <rect width="800" height="800" fill="url(#bg)"/>
  <circle cx="400" cy="400" r="350" fill="none" stroke="#c9a8f0" stroke-width="1" opacity="0.28"/>
  <circle cx="400" cy="400" r="270" fill="none" stroke="#c9a8f0" stroke-width="1" opacity="0.28"/>
  <use href="#petal" transform="rotate(0 400 400)"/>
  <use href="#petal" transform="rotate(30 400 400)"/>
  <use href="#petal" transform="rotate(60 400 400)"/>
  <use href="#petal" transform="rotate(90 400 400)"/>
  <use href="#petal" transform="rotate(120 400 400)"/>
  <use href="#petal" transform="rotate(150 400 400)"/>
  <use href="#petal" transform="rotate(180 400 400)"/>
  <use href="#petal" transform="rotate(210 400 400)"/>
  <use href="#petal" transform="rotate(240 400 400)"/>
  <use href="#petal" transform="rotate(270 400 400)"/>
  <use href="#petal" transform="rotate(300 400 400)"/>
  <use href="#petal" transform="rotate(330 400 400)"/>
  <g transform="translate(400,400)">
<g fill="#c9a8f0" opacity="0.9">
  <circle cx="64" cy="0" r="9"/><circle cx="45.3" cy="45.3" r="9"/><circle cx="0" cy="64" r="9"/><circle cx="-45.3" cy="45.3" r="9"/>
  <circle cx="-64" cy="0" r="9"/><circle cx="-45.3" cy="-45.3" r="9"/><circle cx="0" cy="-64" r="9"/><circle cx="45.3" cy="-45.3" r="9"/>
</g>
<path d="M0,-34 C10,-20 20,-10 20,2 A20,20 0 1 1 -20,2 C-20,-10 -10,-20 0,-34 Z" fill="#e6cdf7" opacity="0.95"/>
<path d="M0,-12 C5,-5 9,0 9,7 A9,9 0 1 1 -9,7 C-9,0 -5,-5 0,-12 Z" fill="#532687" opacity="0.9"/>
<path d="M-26,28 L26,28" stroke="#c9a8f0" stroke-width="6" stroke-linecap="round"/>
  </g>
</svg>
