<svg viewBox="0 0 800 800" xmlns="http://www.w3.org/2000/svg">
  <defs>
    <radialGradient id="bg" cx="50%" cy="46%" r="72%">
      <stop offset="0%" stop-color="#0e3a1e"/>
      <stop offset="55%" stop-color="#1d7a3f"/>
      <stop offset="100%" stop-color="#04120a"/>
    </radialGradient>
    <path id="petal" d="M400,220 Q448,145.0 400,70 Q352,145.0 400,220 Z" fill="none" stroke="#8ff2a8" stroke-width="1.6" opacity="0.4"/>
  </defs>
  <rect width="800" height="800" fill="url(#bg)"/>
  <circle cx="400" cy="400" r="350" fill="none" stroke="#8ff2a8" stroke-width="1" opacity="0.28"/>
  <circle cx="400" cy="400" r="270" fill="none" stroke="#8ff2a8" stroke-width="1" opacity="0.28"/>
  <use href="#petal" transform="rotate(0 400 400)"/>
  <use href="#petal" transform="rotate(36 400 400)"/>
  <use href="#petal" transform="rotate(72 400 400)"/>
  <use href="#petal" transform="rotate(108 400 400)"/>
  <use href="#petal" transform="rotate(144 400 400)"/>
  <use href="#petal" transform="rotate(180 400 400)"/>
  <use href="#petal" transform="rotate(216 400 400)"/>
  <use href="#petal" transform="rotate(252 400 400)"/>
  <use href="#petal" transform="rotate(288 400 400)"/>
  <use href="#petal" transform="rotate(324 400 400)"/>
  <g transform="translate(400,400)">
<circle cx="-52" cy="-58" r="20" fill="#57cf94" opacity="0.95"/>
<circle cx="0" cy="-72" r="24" fill="#8ff2a8" opacity="0.95"/>
<circle cx="52" cy="-58" r="20" fill="#3fae7a" opacity="0.95"/>
<path d="M-46,-38 C-36,-22 -18,-12 -8,-8 M0,-46 L0,-10 M46,-38 C36,-22 18,-12 8,-8" fill="none" stroke="#8ff2a8" stroke-width="4" stroke-linecap="round" opacity="0.8"/>
<path d="M-40,0 L-40,14 Q-40,20 -34,22 L-34,64 Q-34,76 -22,76 L22,76 Q34,76 34,64 L34,22 Q40,20 40,14 L40,0 Z" fill="#d8f5e6" opacity="0.92"/>
<path d="M-26,40 L26,40" stroke="#1d7a3f" stroke-width="4" opacity="0.7"/>
<rect x="-14" y="48" width="28" height="18" rx="3" fill="#1d7a3f" opacity="0.55"/>
  </g>
</svg>
