<svg viewBox="0 0 800 800" xmlns="http://www.w3.org/2000/svg">
  <defs>
    <radialGradient id="bg" cx="50%" cy="46%" r="72%">
      <stop offset="0%" stop-color="#1b3d14"/>
      <stop offset="55%" stop-color="#3c7a24"/>
      <stop offset="100%" stop-color="#081204"/>
    </radialGradient>
    <path id="petal" d="M400,220 Q448,145.0 400,70 Q352,145.0 400,220 Z" fill="none" stroke="#b8f08f" stroke-width="1.6" opacity="0.4"/>
  </defs>
  <rect width="800" height="800" fill="url(#bg)"/>
  <circle cx="400" cy="400" r="350" fill="none" stroke="#b8f08f" stroke-width="1" opacity="0.28"/>
  <circle cx="400" cy="400" r="270" fill="none" stroke="#b8f08f" stroke-width="1" opacity="0.28"/>
  <use href="#petal" transform="rotate(0 400 400)"/>
  <use href="#petal" transform="rotate(22.5 400 400)"/>
  <use href="#petal" transform="rotate(45 400 400)"/>
  <use href="#petal" transform="rotate(67.5 400 400)"/>
  <use href="#petal" transform="rotate(90 400 400)"/>
  <use href="#petal" transform="rotate(112.5 400 400)"/>
  <use href="#petal" transform="rotate(135 400 400)"/>
  <use href="#petal" transform="rotate(157.5 400 400)"/>
  <use href="#petal" transform="rotate(180 400 400)"/>
  <use href="#petal" transform="rotate(202.5 400 400)"/>
  <use href="#petal" transform="rotate(225 400 400)"/>
  <use href="#petal" transform="rotate(247.5 400 400)"/>
  <use href="#petal" transform="rotate(270 400 400)"/>
  <use href="#petal" transform="rotate(292.5 400 400)"/>
  <use href="#petal" transform="rotate(315 400 400)"/>
  <use href="#petal" transform="rotate(337.5 400 400)"/>
  <g transform="translate(400,400)">
<circle cx="0" cy="0" r="70" fill="#e2f5d4" opacity="0.92" stroke="#3c7a24" stroke-width="4"/>
<circle cx="0" cy="0" r="46" fill="none" stroke="#3c7a24" stroke-width="3" opacity="0.7"/>
<path d="M0,-70 L0,70 M-70,0 L70,0" stroke="#3c7a24" stroke-width="4"/>
<circle cx="0" cy="0" r="16" fill="#3c7a24"/>
<path d="M0,-16 C-14,-22 -20,-36 -12,-46 C-2,-38 2,-26 0,-16 Z" fill="#b8f08f"/>
  </g>
</svg>
