<svg viewBox="0 0 800 800" xmlns="http://www.w3.org/2000/svg">
  <defs>
    <radialGradient id="bg" cx="50%" cy="46%" r="72%">
      <stop offset="0%" stop-color="#3d1f0c"/>
      <stop offset="55%" stop-color="#7a3f14"/>
      <stop offset="100%" stop-color="#160a02"/>
    </radialGradient>
    <path id="petal" d="M400,220 Q448,145.0 400,70 Q352,145.0 400,220 Z" fill="none" stroke="#f0b36a" stroke-width="1.6" opacity="0.4"/>
  </defs>
  <rect width="800" height="800" fill="url(#bg)"/>
  <circle cx="400" cy="400" r="350" fill="none" stroke="#f0b36a" stroke-width="1" opacity="0.28"/>
  <circle cx="400" cy="400" r="270" fill="none" stroke="#f0b36a" stroke-width="1" opacity="0.28"/>
  <use href="#petal" transform="rotate(0 400 400)"/>
  <use href="#petal" transform="rotate(30 400 400)"/>
  <use href="#petal" transform="rotate(60 400 400)"/>
  <use href="#petal" transform="rotate(90 400 400)"/>
  <use href="#petal" transform="rotate(120 400 400)"/>
  <use href="#petal" transform="rotate(150 400 400)"/>
  <use href="#petal" transform="rotate(180 400 400)"/>
  <use href="#petal" transform="rotate(210 400 400)"/>
  <use href="#petal" transform="rotate(240 400 400)"/>
  <use href="#petal" transform="rotate(270 400 400)"/>
  <use href="#petal" transform="rotate(300 400 400)"/>
  <use href="#petal" transform="rotate(330 400 400)"/>
  <g transform="translate(400,400)">
<path d="M-30,-46 C-14,-18 -6,-8 -6,4 A24,24 0 1 1 -54,4 C-54,-8 -46,-18 -30,-46 Z" fill="#e08a4a" opacity="0.92"/>
<path d="M30,-46 C46,-18 54,-8 54,4 A24,24 0 1 1 6,4 C6,-8 14,-18 30,-46 Z" fill="#8fc9c0" opacity="0.9"/>
<path d="M0,-40 L0,40" stroke="#f2dcc0" stroke-width="3" stroke-dasharray="4 5" opacity="0.7"/>
  </g>
</svg>
