<svg viewBox="0 0 800 800" xmlns="http://www.w3.org/2000/svg">
  <defs>
    <radialGradient id="bg" cx="50%" cy="46%" r="72%">
      <stop offset="0%" stop-color="#132a3d"/>
      <stop offset="55%" stop-color="#1e5a7a"/>
      <stop offset="100%" stop-color="#050f18"/>
    </radialGradient>
    <path id="petal" d="M400,220 Q448,145.0 400,70 Q352,145.0 400,220 Z" fill="none" stroke="#8fd0e8" stroke-width="1.6" opacity="0.4"/>
  </defs>
  <rect width="800" height="800" fill="url(#bg)"/>
  <circle cx="400" cy="400" r="350" fill="none" stroke="#8fd0e8" stroke-width="1" opacity="0.28"/>
  <circle cx="400" cy="400" r="270" fill="none" stroke="#8fd0e8" stroke-width="1" opacity="0.28"/>
  <use href="#petal" transform="rotate(0 400 400)"/>
  <use href="#petal" transform="rotate(36 400 400)"/>
  <use href="#petal" transform="rotate(72 400 400)"/>
  <use href="#petal" transform="rotate(108 400 400)"/>
  <use href="#petal" transform="rotate(144 400 400)"/>
  <use href="#petal" transform="rotate(180 400 400)"/>
  <use href="#petal" transform="rotate(216 400 400)"/>
  <use href="#petal" transform="rotate(252 400 400)"/>
  <use href="#petal" transform="rotate(288 400 400)"/>
  <use href="#petal" transform="rotate(324 400 400)"/>
  <g transform="translate(400,400)">
<rect x="-34" y="-88" width="68" height="52" rx="9" fill="#dff2fb" opacity="0.92"/>
<path d="M-22,-52 L-22,-74 L-12,-62 L-2,-74 L-2,-52" fill="none" stroke="#1e5a7a" stroke-width="5" stroke-linecap="round" stroke-linejoin="round"/>
<path d="M12,-70 L22,-70 M12,-58 L24,-58" stroke="#1e5a7a" stroke-width="4" stroke-linecap="round"/>
<path d="M0,-26 L0,-2 M-11,-13 L0,-2 L11,-13" fill="none" stroke="#8fd0e8" stroke-width="5" stroke-linecap="round" stroke-linejoin="round"/>
<path d="M0,10 L44,32 L0,54 L-44,32 Z" fill="#9fdcf0" opacity="0.95"/>
<path d="M-44,32 L0,54 L0,90 L-44,68 Z" fill="#4a9cc2" opacity="0.95"/>
<path d="M44,32 L0,54 L0,90 L44,68 Z" fill="#2c6e91" opacity="0.95"/>
  </g>
</svg>
