<svg viewBox="0 0 800 800" xmlns="http://www.w3.org/2000/svg">
  <defs>
    <radialGradient id="bg" cx="50%" cy="46%" r="72%">
      <stop offset="0%" stop-color="#14343d"/>
      <stop offset="55%" stop-color="#1f6473"/>
      <stop offset="100%" stop-color="#05100f"/>
    </radialGradient>
    <path id="petal" d="M400,220 Q448,145.0 400,70 Q352,145.0 400,220 Z" fill="none" stroke="#7fd8d8" stroke-width="1.6" opacity="0.4"/>
  </defs>
  <rect width="800" height="800" fill="url(#bg)"/>
  <circle cx="400" cy="400" r="350" fill="none" stroke="#7fd8d8" stroke-width="1" opacity="0.28"/>
  <circle cx="400" cy="400" r="270" fill="none" stroke="#7fd8d8" stroke-width="1" opacity="0.28"/>
  <use href="#petal" transform="rotate(0 400 400)"/>
  <use href="#petal" transform="rotate(45 400 400)"/>
  <use href="#petal" transform="rotate(90 400 400)"/>
  <use href="#petal" transform="rotate(135 400 400)"/>
  <use href="#petal" transform="rotate(180 400 400)"/>
  <use href="#petal" transform="rotate(225 400 400)"/>
  <use href="#petal" transform="rotate(270 400 400)"/>
  <use href="#petal" transform="rotate(315 400 400)"/>
  <g transform="translate(400,400)">
<rect x="-70" y="-46" width="140" height="80" rx="8" fill="#d7f2f0" opacity="0.92"/>
<path d="M-46,-46 L-46,34 M-23,-46 L-23,34 M0,-46 L0,34 M23,-46 L23,34 M46,-46 L46,34" stroke="#1f6473" stroke-width="4"/>
<rect x="-70" y="-46" width="140" height="80" rx="8" fill="none" stroke="#1f6473" stroke-width="4"/>
<path d="M-72,58 Q-54,48 -36,58 T0,58 T36,58 T72,58" fill="none" stroke="#7fd8d8" stroke-width="4" stroke-linecap="round"/>
<path d="M-58,76 Q-44,68 -30,76 T-2,76 T26,76 T54,76" fill="none" stroke="#7fd8d8" stroke-width="3" stroke-linecap="round" opacity="0.6"/>
  </g>
</svg>
