<svg viewBox="0 0 800 800" xmlns="http://www.w3.org/2000/svg">
  <defs>
    <radialGradient id="bg" cx="50%" cy="46%" r="72%">
      <stop offset="0%" stop-color="#0f3d2a"/>
      <stop offset="55%" stop-color="#1a6b48"/>
      <stop offset="100%" stop-color="#04140d"/>
    </radialGradient>
    <path id="petal" d="M400,220 Q448,145.0 400,70 Q352,145.0 400,220 Z" fill="none" stroke="#8ff2c9" stroke-width="1.6" opacity="0.4"/>
  </defs>
  <rect width="800" height="800" fill="url(#bg)"/>
  <circle cx="400" cy="400" r="350" fill="none" stroke="#8ff2c9" stroke-width="1" opacity="0.28"/>
  <circle cx="400" cy="400" r="270" fill="none" stroke="#8ff2c9" stroke-width="1" opacity="0.28"/>
  <use href="#petal" transform="rotate(0 400 400)"/>
  <use href="#petal" transform="rotate(36 400 400)"/>
  <use href="#petal" transform="rotate(72 400 400)"/>
  <use href="#petal" transform="rotate(108 400 400)"/>
  <use href="#petal" transform="rotate(144 400 400)"/>
  <use href="#petal" transform="rotate(180 400 400)"/>
  <use href="#petal" transform="rotate(216 400 400)"/>
  <use href="#petal" transform="rotate(252 400 400)"/>
  <use href="#petal" transform="rotate(288 400 400)"/>
  <use href="#petal" transform="rotate(324 400 400)"/>
  <g transform="translate(400,400)">
<g fill="#d8f5e6" opacity="0.92">
  <rect x="-84" y="-52" width="28" height="40" rx="6"/><rect x="-48" y="-52" width="28" height="40" rx="6"/>
  <rect x="-12" y="-52" width="28" height="40" rx="6"/><rect x="24" y="-52" width="28" height="40" rx="6"/>
  <rect x="60" y="-52" width="28" height="40" rx="6"/>
  <rect x="-84" y="8" width="28" height="40" rx="6"/><rect x="-48" y="8" width="28" height="40" rx="6"/>
  <rect x="-12" y="8" width="28" height="40" rx="6"/><rect x="24" y="8" width="28" height="40" rx="6"/>
  <rect x="60" y="8" width="28" height="40" rx="6"/>
</g>
<g stroke="#1a6b48" stroke-width="4" stroke-linecap="round">
  <path d="M-82,-56 L-58,-56 M-46,-56 L-22,-56 M-10,-56 L14,-56 M26,-56 L50,-56 M62,-56 L86,-56"/>
  <path d="M-82,4 L-58,4 M-46,4 L-22,4 M-10,4 L14,4 M26,4 L50,4 M62,4 L86,4"/>
</g>
  </g>
</svg>
