<svg viewBox="0 0 800 800" xmlns="http://www.w3.org/2000/svg">
  <defs>
    <radialGradient id="bg" cx="50%" cy="46%" r="72%">
      <stop offset="0%" stop-color="#2e155c"/>
      <stop offset="55%" stop-color="#4b2394"/>
      <stop offset="100%" stop-color="#090612"/>
    </radialGradient>
    <path id="petal" d="M400,220 Q448,145.0 400,70 Q352,145.0 400,220 Z" fill="none" stroke="#b9a5f7" stroke-width="1.6" opacity="0.4"/>
  </defs>
  <rect width="800" height="800" fill="url(#bg)"/>
  <circle cx="400" cy="400" r="350" fill="none" stroke="#b9a5f7" stroke-width="1" opacity="0.28"/>
  <circle cx="400" cy="400" r="270" fill="none" stroke="#b9a5f7" stroke-width="1" opacity="0.28"/>
  <use href="#petal" transform="rotate(0 400 400)"/>
  <use href="#petal" transform="rotate(36 400 400)"/>
  <use href="#petal" transform="rotate(72 400 400)"/>
  <use href="#petal" transform="rotate(108 400 400)"/>
  <use href="#petal" transform="rotate(144 400 400)"/>
  <use href="#petal" transform="rotate(180 400 400)"/>
  <use href="#petal" transform="rotate(216 400 400)"/>
  <use href="#petal" transform="rotate(252 400 400)"/>
  <use href="#petal" transform="rotate(288 400 400)"/>
  <use href="#petal" transform="rotate(324 400 400)"/>
  <g transform="translate(400,400)">
<path d="M-84,0 C-70,-34 -52,30 -36,-6 C-24,-32 -18,26 -4,10 C4,0 -12,-18 2,-22 C16,-26 12,2 24,4 C40,6 56,4 84,4" fill="none" stroke="#e6cdf7" stroke-width="5" stroke-linecap="round"/>
<circle cx="84" cy="4" r="7" fill="#b9a5f7"/>
  </g>
</svg>
