<svg viewBox="0 0 800 800" xmlns="http://www.w3.org/2000/svg">
  <defs>
    <radialGradient id="bg" cx="50%" cy="46%" r="72%">
    <stop offset="0%" stop-color="#0b3745"/>
    <stop offset="55%" stop-color="#0e4a63"/>
    <stop offset="100%" stop-color="#031017"/>
    </radialGradient>
    <path id="petal14986" d="M400,210 Q420,142.5 400,75 Q380,142.5 400,210 Z" fill="none" stroke="#8fe4ef" stroke-width="1.5" opacity="0.4"/>
    
    
  </defs>
  <rect width="800" height="800" fill="url(#bg)"/>
  <circle cx="400" cy="400" r="350" fill="none" stroke="#8fe4ef" stroke-width="1" opacity="0.28"/>
  <circle cx="400" cy="400" r="245" fill="none" stroke="#8fe4ef" stroke-width="1" opacity="0.28"/>
  <circle cx="400" cy="400" r="110" fill="none" stroke="#8fe4ef" stroke-width="1" opacity="0.28"/>
  <use href="#petal14986" transform="rotate(0.0 400 400)"/>
  <use href="#petal14986" transform="rotate(30.0 400 400)"/>
  <use href="#petal14986" transform="rotate(60.0 400 400)"/>
  <use href="#petal14986" transform="rotate(90.0 400 400)"/>
  <use href="#petal14986" transform="rotate(120.0 400 400)"/>
  <use href="#petal14986" transform="rotate(150.0 400 400)"/>
  <use href="#petal14986" transform="rotate(180.0 400 400)"/>
  <use href="#petal14986" transform="rotate(210.0 400 400)"/>
  <use href="#petal14986" transform="rotate(240.0 400 400)"/>
  <use href="#petal14986" transform="rotate(270.0 400 400)"/>
  <use href="#petal14986" transform="rotate(300.0 400 400)"/>
  <use href="#petal14986" transform="rotate(330.0 400 400)"/>
  
  <g transform="translate(400,400)" stroke="#dff8fb" fill="none" stroke-width="2.4">
    <path d="M-70,-40 L-58,70 A58,20 0 0 0 58,70 L70,-40 Z" fill="#2fb9cf" opacity="0.85"/>
    <ellipse cx="0" cy="-40" rx="70" ry="18" fill="#8fe4ef" opacity="0.9" stroke="none"/>
    <path d="M85,-30 Q115,-15 90,10 Q120,25 95,50" opacity="0.85"/>
    <path d="M-10,-95 Q0,-115 10,-95 M10,-110 Q20,-130 30,-110" opacity="0.6" stroke-width="1.8"/>
  </g>
</svg>