<svg viewBox="0 0 800 800" xmlns="http://www.w3.org/2000/svg">
  <defs>
    <radialGradient id="bg" cx="50%" cy="46%" r="72%">
    <stop offset="0%" stop-color="#3a1e0d"/>
    <stop offset="55%" stop-color="#7a3212"/>
    <stop offset="100%" stop-color="#180b04"/>
    </radialGradient>
    <path id="petal1230" d="M400,205 Q428,137.5 400,70 Q372,137.5 400,205 Z" fill="none" stroke="#f2b579" stroke-width="1.8" opacity="0.42"/>
    
    <linearGradient id="taste" x1="0" y1="0" x2="0" y2="1">
      <stop offset="0%" stop-color="#f2734a"/>
      <stop offset="100%" stop-color="#4a9ef2"/>
    </linearGradient>
  </defs>
  <rect width="800" height="800" fill="url(#bg)"/>
  <circle cx="400" cy="400" r="345" fill="none" stroke="#f2b579" stroke-width="1" opacity="0.28"/>
  <circle cx="400" cy="400" r="250" fill="none" stroke="#f2b579" stroke-width="1" opacity="0.28"/>
  <circle cx="400" cy="400" r="120" fill="none" stroke="#f2b579" stroke-width="1" opacity="0.28"/>
  <use href="#petal1230" transform="rotate(0.0 400 400)"/>
  <use href="#petal1230" transform="rotate(36.0 400 400)"/>
  <use href="#petal1230" transform="rotate(72.0 400 400)"/>
  <use href="#petal1230" transform="rotate(108.0 400 400)"/>
  <use href="#petal1230" transform="rotate(144.0 400 400)"/>
  <use href="#petal1230" transform="rotate(180.0 400 400)"/>
  <use href="#petal1230" transform="rotate(216.0 400 400)"/>
  <use href="#petal1230" transform="rotate(252.0 400 400)"/>
  <use href="#petal1230" transform="rotate(288.0 400 400)"/>
  <use href="#petal1230" transform="rotate(324.0 400 400)"/>
  
  <g transform="translate(400,400)">
    <path d="M0,-95 C46,-30 70,20 70,55 A70,70 0 0 1 -70,55 C-70,20 -46,-30 0,-95 Z"
          fill="url(#taste)" opacity="0.92"/>
    <circle r="150" fill="none" stroke="#ffd9b8" stroke-width="1.4" opacity="0.35"/>
  </g>
</svg>