<svg viewBox="0 0 800 800" xmlns="http://www.w3.org/2000/svg">
  <defs>
    <radialGradient id="bg" cx="50%" cy="46%" r="72%">
    <stop offset="0%" stop-color="#5a1f45"/>
    <stop offset="55%" stop-color="#7a1f4a"/>
    <stop offset="100%" stop-color="#1a0a1e"/>
    </radialGradient>
    <path id="petal7435" d="M400,210 Q422,140.0 400,70 Q378,140.0 400,210 Z" fill="none" stroke="#f2a3c4" stroke-width="1.6" opacity="0.4"/>
    
    
  </defs>
  <rect width="800" height="800" fill="url(#bg)"/>
  <circle cx="400" cy="400" r="350" fill="none" stroke="#f2a3c4" stroke-width="1" opacity="0.28"/>
  <circle cx="400" cy="400" r="260" fill="none" stroke="#f2a3c4" stroke-width="1" opacity="0.28"/>
  <circle cx="400" cy="400" r="120" fill="none" stroke="#f2a3c4" stroke-width="1" opacity="0.28"/>
  <use href="#petal7435" transform="rotate(0.0 400 400)"/>
  <use href="#petal7435" transform="rotate(25.714285714285715 400 400)"/>
  <use href="#petal7435" transform="rotate(51.42857142857143 400 400)"/>
  <use href="#petal7435" transform="rotate(77.14285714285714 400 400)"/>
  <use href="#petal7435" transform="rotate(102.85714285714286 400 400)"/>
  <use href="#petal7435" transform="rotate(128.57142857142858 400 400)"/>
  <use href="#petal7435" transform="rotate(154.28571428571428 400 400)"/>
  <use href="#petal7435" transform="rotate(180.0 400 400)"/>
  <use href="#petal7435" transform="rotate(205.71428571428572 400 400)"/>
  <use href="#petal7435" transform="rotate(231.42857142857142 400 400)"/>
  <use href="#petal7435" transform="rotate(257.14285714285717 400 400)"/>
  <use href="#petal7435" transform="rotate(282.85714285714283 400 400)"/>
  <use href="#petal7435" transform="rotate(308.57142857142856 400 400)"/>
  <use href="#petal7435" transform="rotate(334.2857142857143 400 400)"/>
  
  <g transform="translate(400,400)">
    <path d="M-150,0 Q0,-95 150,0 Q0,95 -150,0 Z" fill="none" stroke="#ffd7e8" stroke-width="2.6" opacity="0.9"/>
    <circle r="58" fill="#e0568f" opacity="0.9"/>
    <circle r="30" fill="#2b0f2e"/>
    <circle r="10" cx="-10" cy="-10" fill="#ffe6f2" opacity="0.8"/>
  </g>
</svg>