<svg viewBox="0 0 800 800" xmlns="http://www.w3.org/2000/svg">
  <defs>
    <radialGradient id="bg" cx="50%" cy="46%" r="72%">
      <stop offset="0%" stop-color="#402008"/>
      <stop offset="55%" stop-color="#833f0f"/>
      <stop offset="100%" stop-color="#170902"/>
    </radialGradient>
    <path id="petal" d="M400,220 Q448,145.0 400,70 Q352,145.0 400,220 Z" fill="none" stroke="#f2a65a" stroke-width="1.6" opacity="0.4"/>
  </defs>
  <rect width="800" height="800" fill="url(#bg)"/>
  <circle cx="400" cy="400" r="350" fill="none" stroke="#f2a65a" stroke-width="1" opacity="0.28"/>
  <circle cx="400" cy="400" r="270" fill="none" stroke="#f2a65a" stroke-width="1" opacity="0.28"/>
  <use href="#petal" transform="rotate(0 400 400)"/>
  <use href="#petal" transform="rotate(36 400 400)"/>
  <use href="#petal" transform="rotate(72 400 400)"/>
  <use href="#petal" transform="rotate(108 400 400)"/>
  <use href="#petal" transform="rotate(144 400 400)"/>
  <use href="#petal" transform="rotate(180 400 400)"/>
  <use href="#petal" transform="rotate(216 400 400)"/>
  <use href="#petal" transform="rotate(252 400 400)"/>
  <use href="#petal" transform="rotate(288 400 400)"/>
  <use href="#petal" transform="rotate(324 400 400)"/>
  <g transform="translate(400,400)">
<circle cx="0" cy="0" r="72" fill="#f2dcc0" opacity="0.92"/>
<path d="M0,-72 A72,72 0 0 1 0,72 Z" fill="#d98a4a" opacity="0.9"/>
<line x1="0" y1="-72" x2="0" y2="72" stroke="#7a3f14" stroke-width="4"/>
<circle cx="0" cy="0" r="72" fill="none" stroke="#7a3f14" stroke-width="3"/>
  </g>
</svg>
