<svg viewBox="0 0 800 800" xmlns="http://www.w3.org/2000/svg">
  <defs>
    <radialGradient id="bg" cx="50%" cy="46%" r="72%">
      <stop offset="0%" stop-color="#123a20"/>
      <stop offset="55%" stop-color="#237a4a"/>
      <stop offset="100%" stop-color="#05130a"/>
    </radialGradient>
    <path id="petal" d="M400,220 Q448,145.0 400,70 Q352,145.0 400,220 Z" fill="none" stroke="#93f0be" stroke-width="1.6" opacity="0.4"/>
  </defs>
  <rect width="800" height="800" fill="url(#bg)"/>
  <circle cx="400" cy="400" r="350" fill="none" stroke="#93f0be" stroke-width="1" opacity="0.28"/>
  <circle cx="400" cy="400" r="270" fill="none" stroke="#93f0be" stroke-width="1" opacity="0.28"/>
  <use href="#petal" transform="rotate(0 400 400)"/>
  <use href="#petal" transform="rotate(30 400 400)"/>
  <use href="#petal" transform="rotate(60 400 400)"/>
  <use href="#petal" transform="rotate(90 400 400)"/>
  <use href="#petal" transform="rotate(120 400 400)"/>
  <use href="#petal" transform="rotate(150 400 400)"/>
  <use href="#petal" transform="rotate(180 400 400)"/>
  <use href="#petal" transform="rotate(210 400 400)"/>
  <use href="#petal" transform="rotate(240 400 400)"/>
  <use href="#petal" transform="rotate(270 400 400)"/>
  <use href="#petal" transform="rotate(300 400 400)"/>
  <use href="#petal" transform="rotate(330 400 400)"/>
  <g transform="translate(400,400)">
<path d="M-72,60 L-72,-10 Q-72,-26 -60,-30 L-60,-46 L-40,-46 L-40,-30 Q-28,-26 -28,-10 L-28,60 Z" fill="#d8f5e6" opacity="0.92"/>
<rect x="-62" y="-58" width="24" height="12" rx="4" fill="#3fae7a"/>
<path d="M-22,60 L-22,-2 Q-22,-14 -12,-18 L-12,-52 Q-12,-62 -2,-62 Q8,-62 8,-52 L8,-18 Q18,-14 18,-2 L18,60 Z" fill="#a8e8c8" opacity="0.88"/>
<path d="M28,60 L28,6 Q28,-8 40,-12 L40,-24 L64,-24 L64,-12 Q76,-8 76,6 L76,60 Z" fill="#f0d890" opacity="0.9"/>
<path d="M36,-32 L68,-32" stroke="#f0d890" stroke-width="8" stroke-linecap="round" opacity="0.9"/>
<path d="M-72,30 L-28,30 M-22,34 L18,34 M28,36 L76,36" stroke="#1a6b48" stroke-width="4" opacity="0.7"/>
  </g>
</svg>
