<svg viewBox="0 0 800 800" xmlns="http://www.w3.org/2000/svg">
  <defs>
    <radialGradient id="bg" cx="50%" cy="46%" r="72%">
      <stop offset="0%" stop-color="#1a3a26"/>
      <stop offset="55%" stop-color="#2c6b3f"/>
      <stop offset="100%" stop-color="#081208"/>
    </radialGradient>
    <path id="petal" d="M400,220 Q448,145.0 400,70 Q352,145.0 400,220 Z" fill="none" stroke="#8fe0a8" stroke-width="1.6" opacity="0.4"/>
  </defs>
  <rect width="800" height="800" fill="url(#bg)"/>
  <circle cx="400" cy="400" r="350" fill="none" stroke="#8fe0a8" stroke-width="1" opacity="0.28"/>
  <circle cx="400" cy="400" r="270" fill="none" stroke="#8fe0a8" stroke-width="1" opacity="0.28"/>
  <use href="#petal" transform="rotate(0 400 400)"/>
  <use href="#petal" transform="rotate(45 400 400)"/>
  <use href="#petal" transform="rotate(90 400 400)"/>
  <use href="#petal" transform="rotate(135 400 400)"/>
  <use href="#petal" transform="rotate(180 400 400)"/>
  <use href="#petal" transform="rotate(225 400 400)"/>
  <use href="#petal" transform="rotate(270 400 400)"/>
  <use href="#petal" transform="rotate(315 400 400)"/>
  <g transform="translate(400,400)">
<rect x="-34" y="-20" width="68" height="120" rx="18" fill="#eaf7e8" opacity="0.92"/>
<rect x="-10" y="-70" width="20" height="55" rx="6" fill="#bfe6bb"/>
<rect x="-16" y="-84" width="32" height="16" rx="6" fill="#7fb86a"/>
<circle cx="0" cy="30" r="16" fill="none" stroke="#5c8f4e" stroke-width="2.4" opacity="0.7"/>
  </g>
</svg>
