<svg viewBox="0 0 800 800" xmlns="http://www.w3.org/2000/svg">
  <defs>
    <radialGradient id="bg" cx="50%" cy="46%" r="72%">
      <stop offset="0%" stop-color="#22303a"/>
      <stop offset="55%" stop-color="#3d5566"/>
      <stop offset="100%" stop-color="#0a1014"/>
    </radialGradient>
    <path id="petal" d="M400,220 Q448,145.0 400,70 Q352,145.0 400,220 Z" fill="none" stroke="#b9d4e3" stroke-width="1.6" opacity="0.4"/>
  </defs>
  <rect width="800" height="800" fill="url(#bg)"/>
  <circle cx="400" cy="400" r="350" fill="none" stroke="#b9d4e3" stroke-width="1" opacity="0.28"/>
  <circle cx="400" cy="400" r="270" fill="none" stroke="#b9d4e3" stroke-width="1" opacity="0.28"/>
  <use href="#petal" transform="rotate(0 400 400)"/>
  <use href="#petal" transform="rotate(45 400 400)"/>
  <use href="#petal" transform="rotate(90 400 400)"/>
  <use href="#petal" transform="rotate(135 400 400)"/>
  <use href="#petal" transform="rotate(180 400 400)"/>
  <use href="#petal" transform="rotate(225 400 400)"/>
  <use href="#petal" transform="rotate(270 400 400)"/>
  <use href="#petal" transform="rotate(315 400 400)"/>
  <g transform="translate(400,400)">
<rect x="-75" y="-50" width="150" height="100" rx="16" fill="#e7f1f7" opacity="0.88" stroke="#9db9c8" stroke-width="2"/>
<line x1="-10" y1="-50" x2="-10" y2="50" stroke="#9db9c8" stroke-width="2.2"/>
<line x1="-75" y1="0" x2="-10" y2="0" stroke="#9db9c8" stroke-width="2.2"/>
  </g>
</svg>
