<svg viewBox="0 0 800 800" xmlns="http://www.w3.org/2000/svg">
  <defs>
    <radialGradient id="bg" cx="50%" cy="46%" r="72%">
      <stop offset="0%" stop-color="#3a1a2e"/>
      <stop offset="55%" stop-color="#7a2f4f"/>
      <stop offset="100%" stop-color="#160812"/>
    </radialGradient>
    <path id="petal" d="M400,220 Q448,145.0 400,70 Q352,145.0 400,220 Z" fill="none" stroke="#f0a8c8" stroke-width="1.6" opacity="0.4"/>
  </defs>
  <rect width="800" height="800" fill="url(#bg)"/>
  <circle cx="400" cy="400" r="350" fill="none" stroke="#f0a8c8" stroke-width="1" opacity="0.28"/>
  <circle cx="400" cy="400" r="270" fill="none" stroke="#f0a8c8" stroke-width="1" opacity="0.28"/>
  <use href="#petal" transform="rotate(0 400 400)"/>
  <use href="#petal" transform="rotate(30 400 400)"/>
  <use href="#petal" transform="rotate(60 400 400)"/>
  <use href="#petal" transform="rotate(90 400 400)"/>
  <use href="#petal" transform="rotate(120 400 400)"/>
  <use href="#petal" transform="rotate(150 400 400)"/>
  <use href="#petal" transform="rotate(180 400 400)"/>
  <use href="#petal" transform="rotate(210 400 400)"/>
  <use href="#petal" transform="rotate(240 400 400)"/>
  <use href="#petal" transform="rotate(270 400 400)"/>
  <use href="#petal" transform="rotate(300 400 400)"/>
  <use href="#petal" transform="rotate(330 400 400)"/>
  <g transform="translate(400,400)">
<circle cx="0" cy="6" r="30" fill="none" stroke="#f7d0e4" stroke-width="3" opacity="0.5"/>
<circle cx="0" cy="6" r="54" fill="none" stroke="#f7d0e4" stroke-width="3" opacity="0.34"/>
<circle cx="0" cy="6" r="78" fill="none" stroke="#f7d0e4" stroke-width="3" opacity="0.2"/>
<path d="M0,-58 C22,-20 38,2 38,24 A38,38 0 1 1 -38,24 C-38,2 -22,-20 0,-58 Z" fill="#f7d0e4" opacity="0.95"/>
<path d="M-12,16 A18,18 0 0 0 6,34" fill="none" stroke="#e089b0" stroke-width="4" stroke-linecap="round" opacity="0.8"/>
  </g>
</svg>
