<svg viewBox="0 0 800 800" xmlns="http://www.w3.org/2000/svg">
  <defs>
    <radialGradient id="bg" cx="50%" cy="46%" r="72%">
      <stop offset="0%" stop-color="#4a3005"/>
      <stop offset="55%" stop-color="#8a5c10"/>
      <stop offset="100%" stop-color="#180f02"/>
    </radialGradient>
    <path id="petal" d="M400,220 Q448,145.0 400,70 Q352,145.0 400,220 Z" fill="none" stroke="#ffd77a" stroke-width="1.6" opacity="0.4"/>
  </defs>
  <rect width="800" height="800" fill="url(#bg)"/>
  <circle cx="400" cy="400" r="350" fill="none" stroke="#ffd77a" stroke-width="1" opacity="0.28"/>
  <circle cx="400" cy="400" r="270" fill="none" stroke="#ffd77a" stroke-width="1" opacity="0.28"/>
  <use href="#petal" transform="rotate(0 400 400)"/>
  <use href="#petal" transform="rotate(36 400 400)"/>
  <use href="#petal" transform="rotate(72 400 400)"/>
  <use href="#petal" transform="rotate(108 400 400)"/>
  <use href="#petal" transform="rotate(144 400 400)"/>
  <use href="#petal" transform="rotate(180 400 400)"/>
  <use href="#petal" transform="rotate(216 400 400)"/>
  <use href="#petal" transform="rotate(252 400 400)"/>
  <use href="#petal" transform="rotate(288 400 400)"/>
  <use href="#petal" transform="rotate(324 400 400)"/>
  <g transform="translate(400,400)">
<ellipse cx="0" cy="72" rx="46" ry="10" fill="#8a5c10" opacity="0.5"/>
<path d="M0,10 C-45,10 -55,-35 -30,-55 C-10,-35 -15,10 0,10 Z" fill="#ffe9b0" opacity="0.92"/>
<path d="M0,-10 C45,-10 55,-55 30,-75 C10,-55 15,-10 0,-10 Z" fill="#f4c542" opacity="0.92"/>
<path d="M0,70 L0,-20" fill="none" stroke="#ffd77a" stroke-width="4" stroke-linecap="round"/>
  </g>
</svg>
