<svg viewBox="0 0 800 800" xmlns="http://www.w3.org/2000/svg">
  <defs>
    <radialGradient id="bg" cx="50%" cy="46%" r="72%">
      <stop offset="0%" stop-color="#3a1a3c"/>
      <stop offset="55%" stop-color="#7a2f69"/>
      <stop offset="100%" stop-color="#150816"/>
    </radialGradient>
    <path id="petal" d="M400,220 Q448,145.0 400,70 Q352,145.0 400,220 Z" fill="none" stroke="#eaa6dc" stroke-width="1.6" opacity="0.4"/>
  </defs>
  <rect width="800" height="800" fill="url(#bg)"/>
  <circle cx="400" cy="400" r="350" fill="none" stroke="#eaa6dc" stroke-width="1" opacity="0.28"/>
  <circle cx="400" cy="400" r="270" fill="none" stroke="#eaa6dc" stroke-width="1" opacity="0.28"/>
  <use href="#petal" transform="rotate(0 400 400)"/>
  <use href="#petal" transform="rotate(45 400 400)"/>
  <use href="#petal" transform="rotate(90 400 400)"/>
  <use href="#petal" transform="rotate(135 400 400)"/>
  <use href="#petal" transform="rotate(180 400 400)"/>
  <use href="#petal" transform="rotate(225 400 400)"/>
  <use href="#petal" transform="rotate(270 400 400)"/>
  <use href="#petal" transform="rotate(315 400 400)"/>
  <g transform="translate(400,400)">
<path d="M18,-58 A58,58 0 1 0 18,58 A44,44 0 0 1 18,-58 Z" fill="#f7d0e4" opacity="0.92"/>
<circle cx="-4" cy="-26" r="4" fill="#eaa6dc"/>
<circle cx="-16" cy="6" r="3" fill="#eaa6dc"/>
  </g>
</svg>
