<svg viewBox="0 0 800 800" xmlns="http://www.w3.org/2000/svg">
  <defs>
    <radialGradient id="bg" cx="50%" cy="46%" r="72%">
      <stop offset="0%" stop-color="#381836"/>
      <stop offset="55%" stop-color="#722c60"/>
      <stop offset="100%" stop-color="#150714"/>
    </radialGradient>
    <path id="petal" d="M400,220 Q448,145.0 400,70 Q352,145.0 400,220 Z" fill="none" stroke="#e6a0d4" stroke-width="1.6" opacity="0.4"/>
  </defs>
  <rect width="800" height="800" fill="url(#bg)"/>
  <circle cx="400" cy="400" r="350" fill="none" stroke="#e6a0d4" stroke-width="1" opacity="0.28"/>
  <circle cx="400" cy="400" r="270" fill="none" stroke="#e6a0d4" stroke-width="1" opacity="0.28"/>
  <use href="#petal" transform="rotate(0 400 400)"/>
  <use href="#petal" transform="rotate(36 400 400)"/>
  <use href="#petal" transform="rotate(72 400 400)"/>
  <use href="#petal" transform="rotate(108 400 400)"/>
  <use href="#petal" transform="rotate(144 400 400)"/>
  <use href="#petal" transform="rotate(180 400 400)"/>
  <use href="#petal" transform="rotate(216 400 400)"/>
  <use href="#petal" transform="rotate(252 400 400)"/>
  <use href="#petal" transform="rotate(288 400 400)"/>
  <use href="#petal" transform="rotate(324 400 400)"/>
  <g transform="translate(400,400)">
<path d="M0,-72 C24,-58 48,-52 62,-52 C62,4 48,50 0,74 C-48,50 -62,4 -62,-52 C-48,-52 -24,-58 0,-72 Z" fill="#f7d0e4" opacity="0.92"/>
<path d="M0,-72 C24,-58 48,-52 62,-52 C62,4 48,50 0,74 C-48,50 -62,4 -62,-52 C-48,-52 -24,-58 0,-72 Z" fill="none" stroke="#e089b0" stroke-width="4"/>
<path d="M-22,-2 L-6,16 L26,-24" fill="none" stroke="#e089b0" stroke-width="6" stroke-linecap="round" stroke-linejoin="round"/>
  </g>
</svg>
