<svg viewBox="0 0 800 800" xmlns="http://www.w3.org/2000/svg">
  <defs>
    <radialGradient id="bg" cx="50%" cy="46%" r="72%">
      <stop offset="0%" stop-color="#16381c"/>
      <stop offset="55%" stop-color="#2d6e33"/>
      <stop offset="100%" stop-color="#071106"/>
    </radialGradient>
    <path id="petal" d="M400,220 Q448,145.0 400,70 Q352,145.0 400,220 Z" fill="none" stroke="#a5f0a0" stroke-width="1.6" opacity="0.4"/>
  </defs>
  <rect width="800" height="800" fill="url(#bg)"/>
  <circle cx="400" cy="400" r="350" fill="none" stroke="#a5f0a0" stroke-width="1" opacity="0.28"/>
  <circle cx="400" cy="400" r="270" fill="none" stroke="#a5f0a0" stroke-width="1" opacity="0.28"/>
  <use href="#petal" transform="rotate(0 400 400)"/>
  <use href="#petal" transform="rotate(45 400 400)"/>
  <use href="#petal" transform="rotate(90 400 400)"/>
  <use href="#petal" transform="rotate(135 400 400)"/>
  <use href="#petal" transform="rotate(180 400 400)"/>
  <use href="#petal" transform="rotate(225 400 400)"/>
  <use href="#petal" transform="rotate(270 400 400)"/>
  <use href="#petal" transform="rotate(315 400 400)"/>
  <g transform="translate(400,400)">
<path d="M0,-78 C26,-62 52,-56 68,-56 C68,4 52,54 0,80 C-52,54 -68,4 -68,-56 C-52,-56 -26,-62 0,-78 Z" fill="#d8f5dc" opacity="0.92"/>
<path d="M0,-78 C26,-62 52,-56 68,-56 C68,4 52,54 0,80 C-52,54 -68,4 -68,-56 C-52,-56 -26,-62 0,-78 Z" fill="none" stroke="#2d6e33" stroke-width="4"/>
<path d="M0,46 L0,-30" stroke="#2d6e33" stroke-width="5" stroke-linecap="round"/>
<path d="M0,-30 C-28,-34 -38,-58 -24,-74 C-10,-58 -6,-40 0,-30 Z" fill="#57cf74" opacity="0.95"/>
<path d="M0,-14 C28,-18 38,-42 24,-58 C10,-42 6,-24 0,-14 Z" fill="#3fae5a" opacity="0.95"/>
<path d="M-22,14 Q0,34 22,14" fill="none" stroke="#2d6e33" stroke-width="4" stroke-linecap="round" opacity="0.7"/>
  </g>
</svg>
