<svg viewBox="0 0 800 800" xmlns="http://www.w3.org/2000/svg">
  <defs>
    <radialGradient id="bg" cx="50%" cy="46%" r="72%">
      <stop offset="0%" stop-color="#123527"/>
      <stop offset="55%" stop-color="#20705a"/>
      <stop offset="100%" stop-color="#051009"/>
    </radialGradient>
    <path id="petal" d="M400,220 Q448,145.0 400,70 Q352,145.0 400,220 Z" fill="none" stroke="#8fe8cc" stroke-width="1.6" opacity="0.4"/>
  </defs>
  <rect width="800" height="800" fill="url(#bg)"/>
  <circle cx="400" cy="400" r="350" fill="none" stroke="#8fe8cc" stroke-width="1" opacity="0.28"/>
  <circle cx="400" cy="400" r="270" fill="none" stroke="#8fe8cc" stroke-width="1" opacity="0.28"/>
  <use href="#petal" transform="rotate(0 400 400)"/>
  <use href="#petal" transform="rotate(30 400 400)"/>
  <use href="#petal" transform="rotate(60 400 400)"/>
  <use href="#petal" transform="rotate(90 400 400)"/>
  <use href="#petal" transform="rotate(120 400 400)"/>
  <use href="#petal" transform="rotate(150 400 400)"/>
  <use href="#petal" transform="rotate(180 400 400)"/>
  <use href="#petal" transform="rotate(210 400 400)"/>
  <use href="#petal" transform="rotate(240 400 400)"/>
  <use href="#petal" transform="rotate(270 400 400)"/>
  <use href="#petal" transform="rotate(300 400 400)"/>
  <use href="#petal" transform="rotate(330 400 400)"/>
  <g transform="translate(400,400)">
<path d="M-84,44 L84,44" stroke="#caa877" stroke-width="8" stroke-linecap="round"/>
<path d="M-72,44 L-72,68 M72,44 L72,68" stroke="#caa877" stroke-width="6" stroke-linecap="round"/>
<rect x="-70" y="-16" width="40" height="60" rx="8" fill="#d8f5ec" opacity="0.92"/>
<path d="M-66,-20 L-34,-20" stroke="#20705a" stroke-width="5" stroke-linecap="round"/>
<rect x="-62" y="2" width="24" height="18" rx="3" fill="#20705a" opacity="0.55"/>
<rect x="-18" y="-40" width="40" height="84" rx="8" fill="#c2f0dc" opacity="0.92"/>
<path d="M-14,-44 L18,-44" stroke="#20705a" stroke-width="5" stroke-linecap="round"/>
<rect x="-10" y="-14" width="24" height="20" rx="3" fill="#20705a" opacity="0.55"/>
<rect x="34" y="-8" width="38" height="52" rx="8" fill="#9fe0c6" opacity="0.92"/>
<path d="M38,-12 L68,-12" stroke="#20705a" stroke-width="5" stroke-linecap="round"/>
<rect x="42" y="8" width="22" height="16" rx="3" fill="#20705a" opacity="0.55"/>
  </g>
</svg>
