<svg viewBox="0 0 800 800" xmlns="http://www.w3.org/2000/svg">
  <defs>
    <radialGradient id="bg" cx="50%" cy="46%" r="72%">
      <stop offset="0%" stop-color="#3d1c14"/>
      <stop offset="55%" stop-color="#7e3822"/>
      <stop offset="100%" stop-color="#160806"/>
    </radialGradient>
    <path id="petal" d="M400,220 Q448,145.0 400,70 Q352,145.0 400,220 Z" fill="none" stroke="#f2a67a" stroke-width="1.6" opacity="0.4"/>
  </defs>
  <rect width="800" height="800" fill="url(#bg)"/>
  <circle cx="400" cy="400" r="350" fill="none" stroke="#f2a67a" stroke-width="1" opacity="0.28"/>
  <circle cx="400" cy="400" r="270" fill="none" stroke="#f2a67a" stroke-width="1" opacity="0.28"/>
  <use href="#petal" transform="rotate(0 400 400)"/>
  <use href="#petal" transform="rotate(45 400 400)"/>
  <use href="#petal" transform="rotate(90 400 400)"/>
  <use href="#petal" transform="rotate(135 400 400)"/>
  <use href="#petal" transform="rotate(180 400 400)"/>
  <use href="#petal" transform="rotate(225 400 400)"/>
  <use href="#petal" transform="rotate(270 400 400)"/>
  <use href="#petal" transform="rotate(315 400 400)"/>
  <g transform="translate(400,400)">
<rect x="-64" y="-64" width="128" height="128" rx="16" fill="#f2dcc0" opacity="0.92" stroke="#7a3f14" stroke-width="3"/>
<line x1="0" y1="-64" x2="0" y2="64" stroke="#7a3f14" stroke-width="3"/>
<line x1="-64" y1="0" x2="64" y2="0" stroke="#7a3f14" stroke-width="3"/>
<circle cx="-32" cy="-32" r="13" fill="#4f9a86"/>
<circle cx="32" cy="32" r="13" fill="#4f9a86"/>
<path d="M22,-40 L44,-40 M22,-24 L44,-24" stroke="#c65a24" stroke-width="5" stroke-linecap="round"/>
<path d="M-44,24 L-22,24 M-44,40 L-22,40" stroke="#c65a24" stroke-width="5" stroke-linecap="round"/>
  </g>
</svg>
