<svg viewBox="0 0 800 800" xmlns="http://www.w3.org/2000/svg">
  <defs>
    <radialGradient id="bg" cx="50%" cy="46%" r="72%">
      <stop offset="0%" stop-color="#3c1a39"/>
      <stop offset="55%" stop-color="#7e2f64"/>
      <stop offset="100%" stop-color="#160816"/>
    </radialGradient>
    <path id="petal" d="M400,220 Q448,145.0 400,70 Q352,145.0 400,220 Z" fill="none" stroke="#eea4d6" stroke-width="1.6" opacity="0.4"/>
  </defs>
  <rect width="800" height="800" fill="url(#bg)"/>
  <circle cx="400" cy="400" r="350" fill="none" stroke="#eea4d6" stroke-width="1" opacity="0.28"/>
  <circle cx="400" cy="400" r="270" fill="none" stroke="#eea4d6" stroke-width="1" opacity="0.28"/>
  <use href="#petal" transform="rotate(0 400 400)"/>
  <use href="#petal" transform="rotate(22.5 400 400)"/>
  <use href="#petal" transform="rotate(45 400 400)"/>
  <use href="#petal" transform="rotate(67.5 400 400)"/>
  <use href="#petal" transform="rotate(90 400 400)"/>
  <use href="#petal" transform="rotate(112.5 400 400)"/>
  <use href="#petal" transform="rotate(135 400 400)"/>
  <use href="#petal" transform="rotate(157.5 400 400)"/>
  <use href="#petal" transform="rotate(180 400 400)"/>
  <use href="#petal" transform="rotate(202.5 400 400)"/>
  <use href="#petal" transform="rotate(225 400 400)"/>
  <use href="#petal" transform="rotate(247.5 400 400)"/>
  <use href="#petal" transform="rotate(270 400 400)"/>
  <use href="#petal" transform="rotate(292.5 400 400)"/>
  <use href="#petal" transform="rotate(315 400 400)"/>
  <use href="#petal" transform="rotate(337.5 400 400)"/>
  <g transform="translate(400,400)">
<g fill="#f7d0e4" opacity="0.92">
  <rect x="-84" y="-48" width="26" height="42" rx="6"/><rect x="-50" y="-48" width="26" height="42" rx="6"/>
  <rect x="-16" y="-48" width="26" height="42" rx="6"/><rect x="18" y="-48" width="26" height="42" rx="6"/>
  <rect x="52" y="-48" width="26" height="42" rx="6"/>
  <rect x="-84" y="12" width="26" height="42" rx="6"/><rect x="-50" y="12" width="26" height="42" rx="6"/>
  <rect x="-16" y="12" width="26" height="42" rx="6"/><rect x="18" y="12" width="26" height="42" rx="6"/>
  <rect x="52" y="12" width="26" height="42" rx="6"/>
</g>
<g stroke="#7e2f64" stroke-width="4" stroke-linecap="round">
  <path d="M-80,-52 L-62,-52 M-46,-52 L-28,-52 M-12,-52 L6,-52 M22,-52 L40,-52 M56,-52 L74,-52"/>
  <path d="M-80,8 L-62,8 M-46,8 L-28,8 M-12,8 L6,8 M22,8 L40,8 M56,8 L74,8"/>
</g>
  </g>
</svg>
