<svg viewBox="0 0 800 800" xmlns="http://www.w3.org/2000/svg">
  <defs>
    <radialGradient id="bg" cx="50%" cy="46%" r="72%">
      <stop offset="0%" stop-color="#3a1a3a"/>
      <stop offset="55%" stop-color="#7c2f68"/>
      <stop offset="100%" stop-color="#160816"/>
    </radialGradient>
    <path id="petal" d="M400,220 Q448,145.0 400,70 Q352,145.0 400,220 Z" fill="none" stroke="#eea6da" stroke-width="1.6" opacity="0.4"/>
  </defs>
  <rect width="800" height="800" fill="url(#bg)"/>
  <circle cx="400" cy="400" r="350" fill="none" stroke="#eea6da" stroke-width="1" opacity="0.28"/>
  <circle cx="400" cy="400" r="270" fill="none" stroke="#eea6da" stroke-width="1" opacity="0.28"/>
  <use href="#petal" transform="rotate(0 400 400)"/>
  <use href="#petal" transform="rotate(36 400 400)"/>
  <use href="#petal" transform="rotate(72 400 400)"/>
  <use href="#petal" transform="rotate(108 400 400)"/>
  <use href="#petal" transform="rotate(144 400 400)"/>
  <use href="#petal" transform="rotate(180 400 400)"/>
  <use href="#petal" transform="rotate(216 400 400)"/>
  <use href="#petal" transform="rotate(252 400 400)"/>
  <use href="#petal" transform="rotate(288 400 400)"/>
  <use href="#petal" transform="rotate(324 400 400)"/>
  <g transform="translate(400,400)">
<circle cx="-52" cy="-56" r="20" fill="#e089b0" opacity="0.95"/>
<circle cx="0" cy="-70" r="24" fill="#f7d0e4" opacity="0.95"/>
<circle cx="52" cy="-56" r="20" fill="#dda0d8" opacity="0.95"/>
<path d="M-46,-36 C-36,-20 -18,-10 -8,-6 M0,-46 L0,-8 M46,-36 C36,-20 18,-10 8,-6" fill="none" stroke="#eea6da" stroke-width="4" stroke-linecap="round" opacity="0.8"/>
<path d="M-40,2 L-40,16 Q-40,22 -34,24 L-34,64 Q-34,76 -22,76 L22,76 Q34,76 34,64 L34,24 Q40,22 40,16 L40,2 Z" fill="#f7d0e4" opacity="0.92"/>
  </g>
</svg>
