<svg viewBox="0 0 800 800" xmlns="http://www.w3.org/2000/svg">
  <defs>
    <radialGradient id="bg" cx="50%" cy="46%" r="72%">
    <stop offset="0%" stop-color="#241560"/>
    <stop offset="55%" stop-color="#2a1f6b"/>
    <stop offset="100%" stop-color="#0a0a22"/>
    </radialGradient>
    <path id="petal66883" d="M400,195 Q424,130.0 400,65 Q376,130.0 400,195 Z" fill="none" stroke="#b3a7f7" stroke-width="1.6" opacity="0.38"/>
    
    
  </defs>
  <rect width="800" height="800" fill="url(#bg)"/>
  <circle cx="400" cy="400" r="360" fill="none" stroke="#b3a7f7" stroke-width="1" opacity="0.28"/>
  <circle cx="400" cy="400" r="265" fill="none" stroke="#b3a7f7" stroke-width="1" opacity="0.28"/>
  <circle cx="400" cy="400" r="130" fill="none" stroke="#b3a7f7" stroke-width="1" opacity="0.28"/>
  <use href="#petal66883" transform="rotate(0.0 400 400)"/>
  <use href="#petal66883" transform="rotate(30.0 400 400)"/>
  <use href="#petal66883" transform="rotate(60.0 400 400)"/>
  <use href="#petal66883" transform="rotate(90.0 400 400)"/>
  <use href="#petal66883" transform="rotate(120.0 400 400)"/>
  <use href="#petal66883" transform="rotate(150.0 400 400)"/>
  <use href="#petal66883" transform="rotate(180.0 400 400)"/>
  <use href="#petal66883" transform="rotate(210.0 400 400)"/>
  <use href="#petal66883" transform="rotate(240.0 400 400)"/>
  <use href="#petal66883" transform="rotate(270.0 400 400)"/>
  <use href="#petal66883" transform="rotate(300.0 400 400)"/>
  <use href="#petal66883" transform="rotate(330.0 400 400)"/>
  
  <g transform="translate(400,400)">
    <path d="M-90,0 L-90,-120 A120,60 0 0 1 90,-120 L90,0"
          fill="none" stroke="#e6def7" stroke-width="0" opacity="0"/>
    <rect x="-95" y="-85" width="190" height="190" rx="26" fill="none" stroke="#cabdf7" stroke-width="2.2" opacity="0.85"/>
    <path d="M-45,10 L-10,48 L55,-38" fill="none" stroke="#7c6bf0" stroke-width="14" stroke-linecap="round" stroke-linejoin="round"/>
  </g>
</svg>