<svg viewBox="0 0 800 800" xmlns="http://www.w3.org/2000/svg">
  <defs>
    <radialGradient id="bg" cx="50%" cy="46%" r="72%">
    <stop offset="0%" stop-color="#0d3b47"/>
    <stop offset="55%" stop-color="#0d4a5c"/>
    <stop offset="100%" stop-color="#051821"/>
    </radialGradient>
    <path id="petal41782" d="M400,200 Q418,132.5 400,65 Q382,132.5 400,200 Z" fill="none" stroke="#5fe3d3" stroke-width="1.4" opacity="0.35"/>
    
    
  </defs>
  <rect width="800" height="800" fill="url(#bg)"/>
  <circle cx="400" cy="400" r="355" fill="none" stroke="#5fe3d3" stroke-width="1" opacity="0.28"/>
  <circle cx="400" cy="400" r="250" fill="none" stroke="#5fe3d3" stroke-width="1" opacity="0.28"/>
  <use href="#petal41782" transform="rotate(0.0 400 400)"/>
  <use href="#petal41782" transform="rotate(22.5 400 400)"/>
  <use href="#petal41782" transform="rotate(45.0 400 400)"/>
  <use href="#petal41782" transform="rotate(67.5 400 400)"/>
  <use href="#petal41782" transform="rotate(90.0 400 400)"/>
  <use href="#petal41782" transform="rotate(112.5 400 400)"/>
  <use href="#petal41782" transform="rotate(135.0 400 400)"/>
  <use href="#petal41782" transform="rotate(157.5 400 400)"/>
  <use href="#petal41782" transform="rotate(180.0 400 400)"/>
  <use href="#petal41782" transform="rotate(202.5 400 400)"/>
  <use href="#petal41782" transform="rotate(225.0 400 400)"/>
  <use href="#petal41782" transform="rotate(247.5 400 400)"/>
  <use href="#petal41782" transform="rotate(270.0 400 400)"/>
  <use href="#petal41782" transform="rotate(292.5 400 400)"/>
  <use href="#petal41782" transform="rotate(315.0 400 400)"/>
  <use href="#petal41782" transform="rotate(337.5 400 400)"/>
  
  <g transform="translate(400,400)">
    <circle r="150" fill="none" stroke="#8ff2e6" stroke-width="1.5" opacity="0.45"/>
    <circle r="105" fill="none" stroke="#8ff2e6" stroke-width="1.5" opacity="0.35"/>
    <path d="M0,-70 C40,-70 62,-42 62,-10 C62,34 0,90 0,90 C0,90 -62,34 -62,-10 C-62,-42 -40,-70 0,-70 Z"
          fill="#38d9c9" opacity="0.92"/>
    <circle r="20" cy="-14" fill="#0d2a2b"/>
  </g>
</svg>