<svg viewBox="0 0 800 800" xmlns="http://www.w3.org/2000/svg">
  <defs>
    <radialGradient id="bg" cx="50%" cy="46%" r="72%">
    <stop offset="0%" stop-color="#341a5c"/>
    <stop offset="55%" stop-color="#4a1f7a"/>
    <stop offset="100%" stop-color="#0c0618"/>
    </radialGradient>
    <path id="petal17962" d="M400,195 Q416,130.0 400,65 Q384,130.0 400,195 Z" fill="none" stroke="#c9a8f7" stroke-width="1.4" opacity="0.35"/>
    
    
  </defs>
  <rect width="800" height="800" fill="url(#bg)"/>
  <circle cx="400" cy="400" r="355" fill="none" stroke="#c9a8f7" stroke-width="1" opacity="0.28"/>
  <circle cx="400" cy="400" r="260" fill="none" stroke="#c9a8f7" stroke-width="1" opacity="0.28"/>
  <circle cx="400" cy="400" r="125" fill="none" stroke="#c9a8f7" stroke-width="1" opacity="0.28"/>
  <use href="#petal17962" transform="rotate(0.0 400 400)"/>
  <use href="#petal17962" transform="rotate(22.5 400 400)"/>
  <use href="#petal17962" transform="rotate(45.0 400 400)"/>
  <use href="#petal17962" transform="rotate(67.5 400 400)"/>
  <use href="#petal17962" transform="rotate(90.0 400 400)"/>
  <use href="#petal17962" transform="rotate(112.5 400 400)"/>
  <use href="#petal17962" transform="rotate(135.0 400 400)"/>
  <use href="#petal17962" transform="rotate(157.5 400 400)"/>
  <use href="#petal17962" transform="rotate(180.0 400 400)"/>
  <use href="#petal17962" transform="rotate(202.5 400 400)"/>
  <use href="#petal17962" transform="rotate(225.0 400 400)"/>
  <use href="#petal17962" transform="rotate(247.5 400 400)"/>
  <use href="#petal17962" transform="rotate(270.0 400 400)"/>
  <use href="#petal17962" transform="rotate(292.5 400 400)"/>
  <use href="#petal17962" transform="rotate(315.0 400 400)"/>
  <use href="#petal17962" transform="rotate(337.5 400 400)"/>
  
  <g transform="translate(400,400)" fill="#b98bf0">
    <path d="M0,-95 C36,-40 52,-5 52,20 A52,52 0 0 1 -52,20 C-52,-5 -36,-40 0,-95 Z" opacity="0.55"/>
    <path d="M0,95 C36,40 52,5 52,-20 A52,52 0 0 0 -52,-20 C-52,5 -36,40 0,95 Z" opacity="0.9"/>
    <circle r="180" fill="none" stroke="#e6d6fb" stroke-width="1.3" opacity="0.35"/>
  </g>
</svg>