<svg viewBox="0 0 800 800" xmlns="http://www.w3.org/2000/svg">
  <defs>
    <radialGradient id="bg" cx="50%" cy="46%" r="72%">
      <stop offset="0%" stop-color="#123043"/>
      <stop offset="55%" stop-color="#1f6a8f"/>
      <stop offset="100%" stop-color="#061019"/>
    </radialGradient>
    <path id="petal" d="M400,220 Q448,145.0 400,70 Q352,145.0 400,220 Z" fill="none" stroke="#8fd8f5" stroke-width="1.6" opacity="0.4"/>
  </defs>
  <rect width="800" height="800" fill="url(#bg)"/>
  <circle cx="400" cy="400" r="350" fill="none" stroke="#8fd8f5" stroke-width="1" opacity="0.28"/>
  <circle cx="400" cy="400" r="270" fill="none" stroke="#8fd8f5" stroke-width="1" opacity="0.28"/>
  <use href="#petal" transform="rotate(0 400 400)"/>
  <use href="#petal" transform="rotate(30 400 400)"/>
  <use href="#petal" transform="rotate(60 400 400)"/>
  <use href="#petal" transform="rotate(90 400 400)"/>
  <use href="#petal" transform="rotate(120 400 400)"/>
  <use href="#petal" transform="rotate(150 400 400)"/>
  <use href="#petal" transform="rotate(180 400 400)"/>
  <use href="#petal" transform="rotate(210 400 400)"/>
  <use href="#petal" transform="rotate(240 400 400)"/>
  <use href="#petal" transform="rotate(270 400 400)"/>
  <use href="#petal" transform="rotate(300 400 400)"/>
  <use href="#petal" transform="rotate(330 400 400)"/>
  <g transform="translate(400,400)">
<path d="M0,-64 L64,-32 L0,0 L-64,-32 Z" fill="#bfeaff" opacity="0.9"/>
<path d="M0,-34 L64,-2 L0,30 L-64,-2 Z" fill="#5fb6dd" opacity="0.85"/>
<path d="M0,-4 L64,28 L0,60 L-64,28 Z" fill="#1f6a8f" stroke="#8fd8f5" stroke-width="2" opacity="0.9"/>
  </g>
</svg>
