<svg viewBox="0 0 800 800" xmlns="http://www.w3.org/2000/svg">
  <defs>
    <radialGradient id="bg" cx="50%" cy="46%" r="72%">
      <stop offset="0%" stop-color="#3a2810"/>
      <stop offset="55%" stop-color="#7a5218"/>
      <stop offset="100%" stop-color="#150d04"/>
    </radialGradient>
    <path id="petal" d="M400,220 Q448,145.0 400,70 Q352,145.0 400,220 Z" fill="none" stroke="#f0c878" stroke-width="1.6" opacity="0.4"/>
  </defs>
  <rect width="800" height="800" fill="url(#bg)"/>
  <circle cx="400" cy="400" r="350" fill="none" stroke="#f0c878" stroke-width="1" opacity="0.28"/>
  <circle cx="400" cy="400" r="270" fill="none" stroke="#f0c878" stroke-width="1" opacity="0.28"/>
  <use href="#petal" transform="rotate(0 400 400)"/>
  <use href="#petal" transform="rotate(45 400 400)"/>
  <use href="#petal" transform="rotate(90 400 400)"/>
  <use href="#petal" transform="rotate(135 400 400)"/>
  <use href="#petal" transform="rotate(180 400 400)"/>
  <use href="#petal" transform="rotate(225 400 400)"/>
  <use href="#petal" transform="rotate(270 400 400)"/>
  <use href="#petal" transform="rotate(315 400 400)"/>
  <g transform="translate(400,400)">
<path d="M-52,54 L-52,-6 A52,52 0 0 1 52,-6 L52,54" fill="none" stroke="#f0e4bc" stroke-width="6" stroke-linecap="round" opacity="0.92"/>
<line x1="-64" y1="58" x2="64" y2="58" stroke="#c9a55a" stroke-width="7" stroke-linecap="round"/>
<g transform="translate(0,36)">
  <path d="M0,-34 C10,-20 20,-10 20,2 A20,20 0 1 1 -20,2 C-20,-10 -10,-20 0,-34 Z" fill="#f0c878" opacity="0.95"/>
</g>
  </g>
</svg>
