<svg viewBox="0 0 800 800" xmlns="http://www.w3.org/2000/svg">
  <defs>
    <radialGradient id="bg" cx="50%" cy="46%" r="72%">
      <stop offset="0%" stop-color="#0d3d33"/>
      <stop offset="55%" stop-color="#1a6b5c"/>
      <stop offset="100%" stop-color="#04120f"/>
    </radialGradient>
    <path id="petal" d="M400,220 Q448,145.0 400,70 Q352,145.0 400,220 Z" fill="none" stroke="#8ff2d9" stroke-width="1.6" opacity="0.4"/>
  </defs>
  <rect width="800" height="800" fill="url(#bg)"/>
  <circle cx="400" cy="400" r="350" fill="none" stroke="#8ff2d9" stroke-width="1" opacity="0.28"/>
  <circle cx="400" cy="400" r="270" fill="none" stroke="#8ff2d9" stroke-width="1" opacity="0.28"/>
  <use href="#petal" transform="rotate(0 400 400)"/>
  <use href="#petal" transform="rotate(25.714285714285715 400 400)"/>
  <use href="#petal" transform="rotate(51.42857142857143 400 400)"/>
  <use href="#petal" transform="rotate(77.14285714285714 400 400)"/>
  <use href="#petal" transform="rotate(102.85714285714286 400 400)"/>
  <use href="#petal" transform="rotate(128.57142857142858 400 400)"/>
  <use href="#petal" transform="rotate(154.28571428571428 400 400)"/>
  <use href="#petal" transform="rotate(180 400 400)"/>
  <use href="#petal" transform="rotate(205.71428571428572 400 400)"/>
  <use href="#petal" transform="rotate(231.42857142857144 400 400)"/>
  <use href="#petal" transform="rotate(257.14285714285717 400 400)"/>
  <use href="#petal" transform="rotate(282.8571428571429 400 400)"/>
  <use href="#petal" transform="rotate(308.57142857142856 400 400)"/>
  <use href="#petal" transform="rotate(334.2857142857143 400 400)"/>
  <g transform="translate(400,400)">
<path d="M0,-72 C14,-46 24,-32 24,-18 A24,24 0 1 1 -24,-18 C-24,-32 -14,-46 0,-72 Z" fill="#9fe8d0" opacity="0.92"/>
<path d="M-78,38 Q-78,18 -62,18 L54,18 Q74,18 74,38 Q74,62 44,70 L-40,70 Q-78,62 -78,38 Z" fill="#d8f5ec" opacity="0.9"/>
<path d="M-62,18 L-62,-8 M-38,18 L-38,-16 M-14,18 L-14,-20 M10,18 L10,-16" stroke="#d8f5ec" stroke-width="16" stroke-linecap="round" opacity="0.9"/>
<path d="M54,22 Q84,6 78,-14" fill="none" stroke="#d8f5ec" stroke-width="14" stroke-linecap="round" opacity="0.9"/>
  </g>
</svg>
