<svg viewBox="0 0 800 800" xmlns="http://www.w3.org/2000/svg">
  <defs>
    <radialGradient id="bg" cx="50%" cy="46%" r="72%">
      <stop offset="0%" stop-color="#341a5c"/>
      <stop offset="55%" stop-color="#4a1f7a"/>
      <stop offset="100%" stop-color="#0c0618"/>
    </radialGradient>
    <path id="petal" d="M400,220 Q448,145.0 400,70 Q352,145.0 400,220 Z" fill="none" stroke="#c9a8f7" stroke-width="1.6" opacity="0.4"/>
  </defs>
  <rect width="800" height="800" fill="url(#bg)"/>
  <circle cx="400" cy="400" r="350" fill="none" stroke="#c9a8f7" stroke-width="1" opacity="0.28"/>
  <circle cx="400" cy="400" r="270" fill="none" stroke="#c9a8f7" stroke-width="1" opacity="0.28"/>
  <use href="#petal" transform="rotate(0 400 400)"/>
  <use href="#petal" transform="rotate(36 400 400)"/>
  <use href="#petal" transform="rotate(72 400 400)"/>
  <use href="#petal" transform="rotate(108 400 400)"/>
  <use href="#petal" transform="rotate(144 400 400)"/>
  <use href="#petal" transform="rotate(180 400 400)"/>
  <use href="#petal" transform="rotate(216 400 400)"/>
  <use href="#petal" transform="rotate(252 400 400)"/>
  <use href="#petal" transform="rotate(288 400 400)"/>
  <use href="#petal" transform="rotate(324 400 400)"/>
  <g transform="translate(400,400)">
<rect x="-78" y="-56" width="156" height="112" rx="14" fill="none" stroke="#c9a8f7" stroke-width="4"/>
<g fill="#e6cdf7" opacity="0.92">
  <circle cx="-56" cy="-24" r="12"/><circle cx="-28" cy="-24" r="12"/><circle cx="0" cy="-24" r="12"/><circle cx="28" cy="-24" r="12"/><circle cx="56" cy="-24" r="12"/>
  <circle cx="-56" cy="24" r="12"/><circle cx="-28" cy="24" r="12"/><circle cx="0" cy="24" r="12"/><circle cx="28" cy="24" r="12"/><circle cx="56" cy="24" r="12"/>
</g>
  </g>
</svg>
