<svg viewBox="0 0 800 800" xmlns="http://www.w3.org/2000/svg">
  <defs>
    <radialGradient id="bg" cx="50%" cy="46%" r="72%">
      <stop offset="0%" stop-color="#3a1a2e"/>
      <stop offset="55%" stop-color="#7a2f4f"/>
      <stop offset="100%" stop-color="#160812"/>
    </radialGradient>
    <path id="petal" d="M400,220 Q448,145.0 400,70 Q352,145.0 400,220 Z" fill="none" stroke="#f0a8c8" stroke-width="1.6" opacity="0.4"/>
  </defs>
  <rect width="800" height="800" fill="url(#bg)"/>
  <circle cx="400" cy="400" r="350" fill="none" stroke="#f0a8c8" stroke-width="1" opacity="0.28"/>
  <circle cx="400" cy="400" r="270" fill="none" stroke="#f0a8c8" stroke-width="1" opacity="0.28"/>
  <use href="#petal" transform="rotate(0 400 400)"/>
  <use href="#petal" transform="rotate(30 400 400)"/>
  <use href="#petal" transform="rotate(60 400 400)"/>
  <use href="#petal" transform="rotate(90 400 400)"/>
  <use href="#petal" transform="rotate(120 400 400)"/>
  <use href="#petal" transform="rotate(150 400 400)"/>
  <use href="#petal" transform="rotate(180 400 400)"/>
  <use href="#petal" transform="rotate(210 400 400)"/>
  <use href="#petal" transform="rotate(240 400 400)"/>
  <use href="#petal" transform="rotate(270 400 400)"/>
  <use href="#petal" transform="rotate(300 400 400)"/>
  <use href="#petal" transform="rotate(330 400 400)"/>
  <g transform="translate(400,400)">
<path d="M0,-40 C16,-12 28,2 28,18 A28,28 0 1 1 -28,18 C-28,2 -16,-12 0,-40 Z" fill="#f7d0e4" opacity="0.92"/>
<path d="M-20,-44 Q-30,-58 -20,-72 M0,-52 Q-10,-68 0,-84 M20,-44 Q30,-58 20,-72" fill="none" stroke="#f0a8c8" stroke-width="4" stroke-linecap="round" opacity="0.85"/>
<path d="M-10,14 A14,14 0 0 0 6,28" fill="none" stroke="#e089b0" stroke-width="4" stroke-linecap="round" opacity="0.75"/>
  </g>
</svg>
