<svg viewBox="0 0 800 800" xmlns="http://www.w3.org/2000/svg">
  <defs>
    <radialGradient id="bg" cx="50%" cy="46%" r="72%">
      <stop offset="0%" stop-color="#3a1c28"/>
      <stop offset="55%" stop-color="#6b2f47"/>
      <stop offset="100%" stop-color="#170810"/>
    </radialGradient>
    <path id="petal" d="M400,220 Q448,145.0 400,70 Q352,145.0 400,220 Z" fill="none" stroke="#f5b8cf" stroke-width="1.6" opacity="0.4"/>
  </defs>
  <rect width="800" height="800" fill="url(#bg)"/>
  <circle cx="400" cy="400" r="350" fill="none" stroke="#f5b8cf" stroke-width="1" opacity="0.28"/>
  <circle cx="400" cy="400" r="270" fill="none" stroke="#f5b8cf" stroke-width="1" opacity="0.28"/>
  <use href="#petal" transform="rotate(0 400 400)"/>
  <use href="#petal" transform="rotate(25.714285714285715 400 400)"/>
  <use href="#petal" transform="rotate(51.42857142857143 400 400)"/>
  <use href="#petal" transform="rotate(77.14285714285714 400 400)"/>
  <use href="#petal" transform="rotate(102.85714285714286 400 400)"/>
  <use href="#petal" transform="rotate(128.57142857142858 400 400)"/>
  <use href="#petal" transform="rotate(154.28571428571428 400 400)"/>
  <use href="#petal" transform="rotate(180 400 400)"/>
  <use href="#petal" transform="rotate(205.71428571428572 400 400)"/>
  <use href="#petal" transform="rotate(231.42857142857144 400 400)"/>
  <use href="#petal" transform="rotate(257.14285714285717 400 400)"/>
  <use href="#petal" transform="rotate(282.8571428571429 400 400)"/>
  <use href="#petal" transform="rotate(308.57142857142856 400 400)"/>
  <use href="#petal" transform="rotate(334.2857142857143 400 400)"/>
  <g transform="translate(400,400)">
<rect x="-70" y="-50" width="140" height="100" rx="14" fill="#fbeee7" opacity="0.85"/>
<path d="M-70,-50 L0,10 L70,-50" fill="none" stroke="#f3ded5" stroke-width="2.4" opacity="0.7"/>
<path d="M-70,50 L0,-5 L70,50" fill="none" stroke="#f3ded5" stroke-width="2.4" opacity="0.5"/>
  </g>
</svg>
