<svg viewBox="0 0 800 800" xmlns="http://www.w3.org/2000/svg">
  <defs>
    <radialGradient id="bg" cx="50%" cy="46%" r="72%">
      <stop offset="0%" stop-color="#3a2010"/>
      <stop offset="55%" stop-color="#7a4420"/>
      <stop offset="100%" stop-color="#170c05"/>
    </radialGradient>
    <path id="petal" d="M400,220 Q448,145.0 400,70 Q352,145.0 400,220 Z" fill="none" stroke="#f2b98a" stroke-width="1.6" opacity="0.4"/>
  </defs>
  <rect width="800" height="800" fill="url(#bg)"/>
  <circle cx="400" cy="400" r="350" fill="none" stroke="#f2b98a" stroke-width="1" opacity="0.28"/>
  <circle cx="400" cy="400" r="270" fill="none" stroke="#f2b98a" stroke-width="1" opacity="0.28"/>
  <use href="#petal" transform="rotate(0 400 400)"/>
  <use href="#petal" transform="rotate(22.5 400 400)"/>
  <use href="#petal" transform="rotate(45 400 400)"/>
  <use href="#petal" transform="rotate(67.5 400 400)"/>
  <use href="#petal" transform="rotate(90 400 400)"/>
  <use href="#petal" transform="rotate(112.5 400 400)"/>
  <use href="#petal" transform="rotate(135 400 400)"/>
  <use href="#petal" transform="rotate(157.5 400 400)"/>
  <use href="#petal" transform="rotate(180 400 400)"/>
  <use href="#petal" transform="rotate(202.5 400 400)"/>
  <use href="#petal" transform="rotate(225 400 400)"/>
  <use href="#petal" transform="rotate(247.5 400 400)"/>
  <use href="#petal" transform="rotate(270 400 400)"/>
  <use href="#petal" transform="rotate(292.5 400 400)"/>
  <use href="#petal" transform="rotate(315 400 400)"/>
  <use href="#petal" transform="rotate(337.5 400 400)"/>
  <g transform="translate(400,400)">
<g fill="#f5e6d8" opacity="0.92">
  <circle cx="-40" cy="-10" r="34"/>
  <circle cx="0" cy="-35" r="38"/>
  <circle cx="42" cy="-10" r="34"/>
  <circle cx="-25" cy="25" r="30"/>
  <circle cx="25" cy="25" r="30"/>
  <circle cx="0" cy="5" r="28"/>
</g>
<path d="M-15,-5 q8,10 0,20 M15,-5 q-8,10 0,20" fill="none" stroke="#caa27e" stroke-width="2" opacity="0.5"/>
  </g>
</svg>
