<svg viewBox="0 0 800 800" xmlns="http://www.w3.org/2000/svg">
  <defs>
    <radialGradient id="bg" cx="50%" cy="46%" r="72%">
      <stop offset="0%" stop-color="#3a2408"/>
      <stop offset="55%" stop-color="#6b4a12"/>
      <stop offset="100%" stop-color="#140d02"/>
    </radialGradient>
    <path id="petal" d="M400,220 Q448,145.0 400,70 Q352,145.0 400,220 Z" fill="none" stroke="#f4c542" stroke-width="1.6" opacity="0.4"/>
  </defs>
  <rect width="800" height="800" fill="url(#bg)"/>
  <circle cx="400" cy="400" r="350" fill="none" stroke="#f4c542" stroke-width="1" opacity="0.28"/>
  <circle cx="400" cy="400" r="270" fill="none" stroke="#f4c542" stroke-width="1" opacity="0.28"/>
  <use href="#petal" transform="rotate(0 400 400)"/>
  <use href="#petal" transform="rotate(30 400 400)"/>
  <use href="#petal" transform="rotate(60 400 400)"/>
  <use href="#petal" transform="rotate(90 400 400)"/>
  <use href="#petal" transform="rotate(120 400 400)"/>
  <use href="#petal" transform="rotate(150 400 400)"/>
  <use href="#petal" transform="rotate(180 400 400)"/>
  <use href="#petal" transform="rotate(210 400 400)"/>
  <use href="#petal" transform="rotate(240 400 400)"/>
  <use href="#petal" transform="rotate(270 400 400)"/>
  <use href="#petal" transform="rotate(300 400 400)"/>
  <use href="#petal" transform="rotate(330 400 400)"/>
  <g transform="translate(400,400)">
<polygon points="0,-70 61,-35 61,35 0,70 -61,35 -61,-35" fill="#f4c542" opacity="0.92"/>
<polygon points="0,-70 61,-35 61,35 0,70 -61,35 -61,-35" fill="none" stroke="#7a4a06" stroke-width="3" opacity="0.6"/>
<path d="M0,-70 L0,70 M-61,-35 L61,35 M61,-35 L-61,35" stroke="#c98a12" stroke-width="1.6" opacity="0.5"/>
  </g>
</svg>
