<svg viewBox="0 0 640 280" xmlns="http://www.w3.org/2000/svg" role="img" aria-label="{{aria}}">
<defs><marker id="arr-bld" viewBox="0 0 10 10" refX="8" refY="5" markerWidth="7" markerHeight="7" orient="auto"><path d="M0 0 L10 5 L0 10 z" fill="var(--muted)"/></marker></defs>
<rect x="16" y="20" width="224" height="76" rx="12" fill="var(--sage)"/>
<text x="128" y="52" text-anchor="middle" font-size="14" font-weight="700" fill="var(--on-accent)">{{lead1}}</text>
<text x="128" y="74" text-anchor="middle" font-size="12" fill="var(--on-accent)">{{lead2}}</text>
<rect x="16" y="116" width="200" height="62" rx="12" fill="var(--mint)"/>
<text x="116" y="141" text-anchor="middle" font-size="13" font-weight="700" fill="var(--ink)">{{sup1}}</text>
<text x="116" y="160" text-anchor="middle" font-size="11.5" fill="var(--muted)">{{sup2}}</text>
<rect x="16" y="196" width="200" height="62" rx="12" fill="var(--peach)"/>
<text x="116" y="221" text-anchor="middle" font-size="13" font-weight="700" fill="var(--ink)">{{cor1}}</text>
<text x="116" y="240" text-anchor="middle" font-size="11.5" fill="var(--muted)">{{cor2}}</text>
<path d="M244 58 C 330 64, 380 98, 422 126" fill="none" stroke="var(--muted)" stroke-width="2" marker-end="url(#arr-bld)"/>
<line x1="220" y1="147" x2="422" y2="146" stroke="var(--muted)" stroke-width="2" marker-end="url(#arr-bld)"/>
<path d="M220 227 C 320 222, 380 194, 422 168" fill="none" stroke="var(--muted)" stroke-width="2" marker-end="url(#arr-bld)"/>
<rect x="428" y="104" width="196" height="84" rx="12" fill="var(--lilac)"/>
<text x="526" y="140" text-anchor="middle" font-size="13.5" font-weight="700" fill="var(--ink)">{{jar1}}</text>
<text x="526" y="161" text-anchor="middle" font-size="12" fill="var(--muted)">{{jar2}}</text>
<text x="526" y="212" text-anchor="middle" font-size="11.5" font-style="italic" fill="var(--muted)">{{note}}</text>
</svg>
