<svg viewBox="0 0 640 230" xmlns="http://www.w3.org/2000/svg" role="img" aria-label="{{aria}}">
<defs><marker id="arr-dil" viewBox="0 0 10 10" refX="8" refY="5" markerWidth="7" markerHeight="7" orient="auto"><path d="M0 0 L10 5 L0 10 z" fill="var(--muted)"/></marker></defs>
<rect x="150" y="96" width="200" height="40" rx="10" fill="var(--peach)"/>
<text x="250" y="121" text-anchor="middle" font-size="12.5" fill="var(--ink)">{{zone_adult}}</text>
<rect x="380" y="96" width="230" height="40" rx="10" fill="var(--mint)"/>
<text x="495" y="121" text-anchor="middle" font-size="12.5" fill="var(--ink)">{{zone_gentle}}</text>
<line x1="24" y1="150" x2="620" y2="150" stroke="var(--ink)" stroke-width="2" marker-end="url(#arr-dil)"/>
<line x1="60" y1="144" x2="60" y2="156" stroke="var(--ink)" stroke-width="2"/><text x="60" y="174" text-anchor="middle" font-size="12.5" font-weight="700" fill="var(--clay)">{{tick_neat}}</text>
<line x1="170" y1="144" x2="170" y2="156" stroke="var(--ink)" stroke-width="2"/><text x="170" y="174" text-anchor="middle" font-size="12.5" fill="var(--ink)">{{tick_3}}</text>
<line x1="290" y1="144" x2="290" y2="156" stroke="var(--ink)" stroke-width="2"/><text x="290" y="174" text-anchor="middle" font-size="12.5" fill="var(--ink)">{{tick_2}}</text>
<line x1="410" y1="144" x2="410" y2="156" stroke="var(--ink)" stroke-width="2"/><text x="410" y="174" text-anchor="middle" font-size="12.5" fill="var(--ink)">{{tick_1}}</text>
<line x1="540" y1="144" x2="540" y2="156" stroke="var(--ink)" stroke-width="2"/><text x="540" y="174" text-anchor="middle" font-size="12.5" fill="var(--ink)">{{tick_05}}</text>
<line x1="60" y1="30" x2="60" y2="144" stroke="var(--clay)" stroke-width="2" stroke-dasharray="5 5"/>
<text x="68" y="42" font-size="12.5" font-weight="700" fill="var(--clay)">{{redline}}</text>
<text x="24" y="206" font-size="12" font-style="italic" fill="var(--muted)">{{note}}</text>
</svg>
