<svg viewBox="0 0 640 300" xmlns="http://www.w3.org/2000/svg" role="img" aria-label="{{aria}}">
<defs>
<marker id="arr-fsl" viewBox="0 0 10 10" refX="8" refY="5" markerWidth="7" markerHeight="7" orient="auto"><path d="M0 0 L10 5 L0 10 z" fill="var(--muted)"/></marker>
<marker id="arr-fsl-clay" viewBox="0 0 10 10" refX="8" refY="5" markerWidth="7" markerHeight="7" orient="auto"><path d="M0 0 L10 5 L0 10 z" fill="var(--clay)"/></marker>
</defs>
<circle cx="280" cy="164" r="124" fill="none" stroke="var(--line)" stroke-width="1.5"/>
<path d="M330.4,50.7 A124,124 0 0 1 372.1,81" fill="none" stroke="var(--muted)" stroke-width="2" marker-end="url(#arr-fsl)"/>
<path d="M403.3,177 A124,124 0 0 1 387.4,226" fill="none" stroke="var(--muted)" stroke-width="2" marker-end="url(#arr-fsl)"/>
<path d="M305.8,285.3 A124,124 0 0 1 254.2,285.3" fill="none" stroke="var(--muted)" stroke-width="2" marker-end="url(#arr-fsl)"/>
<path d="M172.6,226 A124,124 0 0 1 156.7,177" fill="none" stroke="var(--muted)" stroke-width="2" marker-end="url(#arr-fsl)"/>
<path d="M187.9,81 A124,124 0 0 1 229.6,50.7" fill="none" stroke="var(--muted)" stroke-width="2" marker-end="url(#arr-fsl)"/>
<rect x="222" y="26" width="116" height="28" rx="14" fill="var(--mint)"/>
<text x="280" y="44" text-anchor="middle" font-size="12" fill="var(--ink)">{{node1}}</text>
<rect x="340" y="112" width="116" height="28" rx="14" fill="var(--peach)"/>
<text x="398" y="130" text-anchor="middle" font-size="12" fill="var(--ink)">{{node2}}</text>
<rect x="295" y="250" width="116" height="28" rx="14" fill="var(--lilac)"/>
<text x="353" y="268" text-anchor="middle" font-size="12" fill="var(--ink)">{{node3}}</text>
<rect x="149" y="250" width="116" height="28" rx="14" fill="var(--mint)"/>
<text x="207" y="268" text-anchor="middle" font-size="12" fill="var(--ink)">{{node4}}</text>
<rect x="104" y="112" width="116" height="28" rx="14" fill="var(--peach)"/>
<text x="162" y="130" text-anchor="middle" font-size="12" fill="var(--ink)">{{node5}}</text>
<rect x="195" y="144" width="170" height="48" rx="10" fill="var(--sage)"/>
<text x="280" y="164" text-anchor="middle" font-size="13" font-weight="700" fill="var(--on-accent)">{{center}}</text>
<text x="280" y="181" text-anchor="middle" font-size="11" fill="var(--on-accent)">{{centersub}}</text>
<path d="M342,40 C 412,46 452,66 484,92" fill="none" stroke="var(--clay)" stroke-width="2" stroke-dasharray="6 5" marker-end="url(#arr-fsl-clay)"/>
<rect x="478" y="96" width="146" height="44" rx="10" fill="var(--sand-2)" stroke="var(--clay)" stroke-width="2"/>
<text x="551" y="123" text-anchor="middle" font-size="12.5" font-weight="700" fill="var(--clay)">{{exit}}</text>
</svg>
