<svg viewBox="0 0 640 210" xmlns="http://www.w3.org/2000/svg" role="img" aria-label="{{aria}}">
<defs><marker id="arr-fmap" viewBox="0 0 10 10" refX="8" refY="5" markerWidth="7" markerHeight="7" orient="auto"><path d="M0 0 L10 5 L0 10 z" fill="var(--muted)"/></marker></defs>
<text x="66" y="34" text-anchor="middle" font-size="11.5" fill="var(--muted)">{{t1}}</text>
<text x="320" y="34" text-anchor="middle" font-size="11.5" fill="var(--muted)">{{t2}}</text>
<text x="574" y="34" text-anchor="middle" font-size="11.5" fill="var(--muted)">{{t3}}</text>
<rect x="16" y="46" width="100" height="96" rx="12" fill="var(--mint)"/>
<text x="66" y="78" text-anchor="middle" font-size="13.5" font-weight="700" fill="var(--ink)">{{t4}}</text>
<text x="66" y="96" text-anchor="middle" font-size="13.5" font-weight="700" fill="var(--ink)">{{t5}}</text>
<text x="66" y="120" text-anchor="middle" font-size="11.5" fill="var(--muted)">{{t6}}</text>
<line x1="116" y1="94" x2="138" y2="94" stroke="var(--muted)" stroke-width="2" marker-end="url(#arr-fmap)"/>
<rect x="144" y="46" width="100" height="96" rx="12" fill="var(--peach)"/>
<text x="194" y="78" text-anchor="middle" font-size="13.5" font-weight="700" fill="var(--ink)">{{t7}}</text>
<text x="194" y="102" text-anchor="middle" font-size="11.5" fill="var(--muted)">{{t8}}</text>
<text x="194" y="117" text-anchor="middle" font-size="11.5" fill="var(--muted)">{{t9}}</text>
<line x1="244" y1="94" x2="266" y2="94" stroke="var(--muted)" stroke-width="2" marker-end="url(#arr-fmap)"/>
<rect x="272" y="46" width="100" height="96" rx="12" fill="var(--peach)"/>
<text x="322" y="78" text-anchor="middle" font-size="13.5" font-weight="700" fill="var(--ink)">{{t10}}</text>
<text x="322" y="102" text-anchor="middle" font-size="11.5" fill="var(--muted)">{{t11}}</text>
<text x="322" y="117" text-anchor="middle" font-size="11.5" fill="var(--muted)">{{t12}}</text>
<line x1="372" y1="94" x2="394" y2="94" stroke="var(--muted)" stroke-width="2" marker-end="url(#arr-fmap)"/>
<rect x="400" y="46" width="100" height="96" rx="12" fill="var(--peach)"/>
<text x="450" y="78" text-anchor="middle" font-size="13.5" font-weight="700" fill="var(--ink)">{{t13}}</text>
<text x="450" y="102" text-anchor="middle" font-size="11.5" fill="var(--muted)">{{t14}}</text>
<text x="450" y="117" text-anchor="middle" font-size="11.5" fill="var(--muted)">{{t15}}</text>
<line x1="500" y1="94" x2="522" y2="94" stroke="var(--muted)" stroke-width="2" marker-end="url(#arr-fmap)"/>
<rect x="528" y="46" width="96" height="96" rx="12" fill="var(--sage)"/>
<text x="576" y="78" text-anchor="middle" font-size="13.5" font-weight="700" fill="var(--on-accent)">{{t16}}</text>
<text x="576" y="96" text-anchor="middle" font-size="13.5" font-weight="700" fill="var(--on-accent)">{{t17}}</text>
<text x="576" y="120" text-anchor="middle" font-size="11.5" fill="var(--on-accent)">{{t18}}</text>
<text x="320" y="180" text-anchor="middle" font-size="12" font-style="italic" fill="var(--muted)">{{t19}}</text>
</svg>
