<svg viewBox="0 0 640 370" xmlns="http://www.w3.org/2000/svg" role="img" aria-label="{{aria}}">
<path d="M320,185 L320,15 A170,170 0 0 1 490,185 Z" fill="var(--mint)" stroke="var(--line)" stroke-width="1.5"/>
<path d="M320,185 L490,185 A170,170 0 0 1 320,355 Z" fill="var(--peach)" stroke="var(--line)" stroke-width="1.5"/>
<path d="M320,185 L320,355 A170,170 0 0 1 150,185 Z" fill="var(--lilac)" stroke="var(--line)" stroke-width="1.5"/>
<path d="M320,185 L150,185 A170,170 0 0 1 320,15 Z" fill="var(--sand-2)" stroke="var(--line)" stroke-width="1.5"/>
<text x="410" y="96" text-anchor="middle" font-size="13" font-weight="700" fill="var(--ink)">{{q1s}}</text>
<text x="410" y="116" text-anchor="middle" font-size="11.5" fill="var(--muted)">{{q1a}}</text>
<text x="410" y="132" text-anchor="middle" font-size="11.5" fill="var(--muted)">{{q1b}}</text>
<text x="410" y="250" text-anchor="middle" font-size="13" font-weight="700" fill="var(--ink)">{{q2s}}</text>
<text x="410" y="270" text-anchor="middle" font-size="11.5" fill="var(--muted)">{{q2a}}</text>
<text x="410" y="286" text-anchor="middle" font-size="11.5" fill="var(--muted)">{{q2b}}</text>
<text x="230" y="250" text-anchor="middle" font-size="13" font-weight="700" fill="var(--ink)">{{q3s}}</text>
<text x="230" y="270" text-anchor="middle" font-size="11.5" fill="var(--muted)">{{q3a}}</text>
<text x="230" y="286" text-anchor="middle" font-size="11.5" fill="var(--muted)">{{q3b}}</text>
<text x="230" y="96" text-anchor="middle" font-size="13" font-weight="700" fill="var(--ink)">{{q4s}}</text>
<text x="230" y="116" text-anchor="middle" font-size="11.5" fill="var(--muted)">{{q4a}}</text>
<text x="230" y="132" text-anchor="middle" font-size="11.5" fill="var(--muted)">{{q4b}}</text>
<circle cx="320" cy="185" r="60" fill="var(--sage)" stroke="var(--line)" stroke-width="1.5"/>
<text x="320" y="181" text-anchor="middle" font-size="13" font-weight="700" fill="var(--on-accent)">{{c1}}</text>
<text x="320" y="199" text-anchor="middle" font-size="11.5" fill="var(--on-accent)">{{c2}}</text>
</svg>
