<svg viewBox="0 0 640 210" xmlns="http://www.w3.org/2000/svg" role="img" aria-label="{{aria}}">
<defs><marker id="arr-imap" viewBox="0 0 10 10" refX="8" refY="5" markerWidth="7" markerHeight="7" orient="auto"><path d="M0 0 L10 5 L0 10 z" fill="var(--muted)"/></marker></defs>
<text x="66" y="34" text-anchor="middle" font-size="11.5" fill="var(--muted)">{{stage1}}</text>
<text x="320" y="34" text-anchor="middle" font-size="11.5" fill="var(--muted)">{{stage2}}</text>
<text x="574" y="34" text-anchor="middle" font-size="11.5" fill="var(--muted)">{{stage3}}</text>
<rect x="16" y="46" width="100" height="96" rx="12" fill="var(--mint)"/>
<text x="66" y="78" text-anchor="middle" font-size="13.5" font-weight="700" fill="var(--ink)">{{ch1a}}</text>
<text x="66" y="96" text-anchor="middle" font-size="13.5" font-weight="700" fill="var(--ink)">{{ch1b}}</text>
<text x="66" y="120" text-anchor="middle" font-size="11.5" fill="var(--muted)">{{ch1sub}}</text>
<line x1="116" y1="94" x2="138" y2="94" stroke="var(--muted)" stroke-width="2" marker-end="url(#arr-imap)"/>
<rect x="144" y="46" width="100" height="96" rx="12" fill="var(--peach)"/>
<text x="194" y="78" text-anchor="middle" font-size="13.5" font-weight="700" fill="var(--ink)">{{ch2a}}</text>
<text x="194" y="102" text-anchor="middle" font-size="11.5" fill="var(--muted)">{{ch2sub1}}</text>
<text x="194" y="117" text-anchor="middle" font-size="11.5" fill="var(--muted)">{{ch2sub2}}</text>
<line x1="244" y1="94" x2="266" y2="94" stroke="var(--muted)" stroke-width="2" marker-end="url(#arr-imap)"/>
<rect x="272" y="46" width="100" height="96" rx="12" fill="var(--peach)"/>
<text x="322" y="78" text-anchor="middle" font-size="13.5" font-weight="700" fill="var(--ink)">{{ch3a}}</text>
<text x="322" y="102" text-anchor="middle" font-size="11.5" fill="var(--muted)">{{ch3sub1}}</text>
<text x="322" y="117" text-anchor="middle" font-size="11.5" fill="var(--muted)">{{ch3sub2}}</text>
<line x1="372" y1="94" x2="394" y2="94" stroke="var(--muted)" stroke-width="2" marker-end="url(#arr-imap)"/>
<rect x="400" y="46" width="100" height="96" rx="12" fill="var(--peach)"/>
<text x="450" y="78" text-anchor="middle" font-size="13.5" font-weight="700" fill="var(--ink)">{{ch4a}}</text>
<text x="450" y="102" text-anchor="middle" font-size="11.5" fill="var(--muted)">{{ch4sub1}}</text>
<text x="450" y="117" text-anchor="middle" font-size="11.5" fill="var(--muted)">{{ch4sub2}}</text>
<line x1="500" y1="94" x2="522" y2="94" stroke="var(--muted)" stroke-width="2" marker-end="url(#arr-imap)"/>
<rect x="528" y="46" width="96" height="96" rx="12" fill="var(--sage)"/>
<text x="576" y="78" text-anchor="middle" font-size="13.5" font-weight="700" fill="var(--on-accent)">{{ch5a}}</text>
<text x="576" y="96" text-anchor="middle" font-size="13.5" font-weight="700" fill="var(--on-accent)">{{ch5b}}</text>
<text x="576" y="120" text-anchor="middle" font-size="11.5" fill="var(--on-accent)">{{ch5sub}}</text>
<text x="320" y="180" text-anchor="middle" font-size="12" font-style="italic" fill="var(--muted)">{{footer}}</text>
</svg>
