<svg viewBox="0 0 640 150" xmlns="http://www.w3.org/2000/svg" role="img" aria-label="{{aria}}">
<defs><marker id="arr-n2l" viewBox="0 0 10 10" refX="8" refY="5" markerWidth="7" markerHeight="7" orient="auto"><path d="M0 0 L10 5 L0 10 z" fill="var(--muted)"/></marker></defs>
<rect x="12" y="34" width="110" height="76" rx="12" fill="var(--mint)"/>
<text x="67" y="68" text-anchor="middle" font-size="12.5" font-weight="700" fill="var(--ink)">{{s1_title}}</text>
<text x="67" y="88" text-anchor="middle" font-size="11.5" fill="var(--muted)">{{s1_sub}}</text>
<line x1="122" y1="72" x2="137" y2="72" stroke="var(--muted)" stroke-width="2" marker-end="url(#arr-n2l)"/>
<rect x="137" y="34" width="110" height="76" rx="12" fill="var(--peach)"/>
<text x="192" y="68" text-anchor="middle" font-size="12.5" font-weight="700" fill="var(--ink)">{{s2_title}}</text>
<text x="192" y="88" text-anchor="middle" font-size="11.5" fill="var(--muted)">{{s2_sub}}</text>
<line x1="247" y1="72" x2="262" y2="72" stroke="var(--muted)" stroke-width="2" marker-end="url(#arr-n2l)"/>
<rect x="262" y="34" width="110" height="76" rx="12" fill="var(--mint)"/>
<text x="317" y="68" text-anchor="middle" font-size="12.5" font-weight="700" fill="var(--ink)">{{s3_title}}</text>
<text x="317" y="88" text-anchor="middle" font-size="11.5" fill="var(--muted)">{{s3_sub}}</text>
<line x1="372" y1="72" x2="387" y2="72" stroke="var(--muted)" stroke-width="2" marker-end="url(#arr-n2l)"/>
<rect x="387" y="34" width="110" height="76" rx="12" fill="var(--sage)"/>
<text x="442" y="68" text-anchor="middle" font-size="12.5" font-weight="700" fill="var(--on-accent)">{{s4_title}}</text>
<text x="442" y="88" text-anchor="middle" font-size="11.5" fill="var(--on-accent)">{{s4_sub}}</text>
<line x1="497" y1="72" x2="512" y2="72" stroke="var(--muted)" stroke-width="2" marker-end="url(#arr-n2l)"/>
<rect x="512" y="34" width="110" height="76" rx="12" fill="var(--peach)"/>
<text x="567" y="68" text-anchor="middle" font-size="12.5" font-weight="700" fill="var(--ink)">{{s5_title}}</text>
<text x="567" y="88" text-anchor="middle" font-size="11.5" fill="var(--muted)">{{s5_sub}}</text>
</svg>
