<svg viewBox="0 0 640 260" xmlns="http://www.w3.org/2000/svg" role="img" aria-label="{{aria}}">
<defs><marker id="arr-ops" viewBox="0 0 10 10" refX="8" refY="5" markerWidth="7" markerHeight="7" orient="auto"><path d="M0 0 L10 5 L0 10 z" fill="var(--muted)"/></marker></defs>
<rect x="16" y="30" width="180" height="70" rx="12" fill="var(--mint)"/>
<text x="106" y="60" text-anchor="middle" font-size="13.5" font-weight="700" fill="var(--ink)">{{t1}}</text>
<text x="106" y="80" text-anchor="middle" font-size="12" fill="var(--muted)">{{t2}}</text>
<line x1="196" y1="65" x2="222" y2="65" stroke="var(--muted)" stroke-width="2" marker-end="url(#arr-ops)"/>
<rect x="230" y="30" width="180" height="70" rx="12" fill="var(--mint)"/>
<text x="320" y="60" text-anchor="middle" font-size="13.5" font-weight="700" fill="var(--ink)">{{t3}}</text>
<text x="320" y="80" text-anchor="middle" font-size="12" fill="var(--muted)">{{t4}}</text>
<line x1="410" y1="65" x2="436" y2="65" stroke="var(--muted)" stroke-width="2" marker-end="url(#arr-ops)"/>
<rect x="444" y="30" width="180" height="70" rx="12" fill="var(--mint)"/>
<text x="534" y="60" text-anchor="middle" font-size="13.5" font-weight="700" fill="var(--ink)">{{t5}}</text>
<text x="534" y="80" text-anchor="middle" font-size="12" fill="var(--muted)">{{t6}}</text>
<path d="M534 100 C 534 130, 534 130, 534 152" fill="none" stroke="var(--muted)" stroke-width="2" marker-end="url(#arr-ops)"/>
<rect x="444" y="160" width="180" height="70" rx="12" fill="var(--peach)"/>
<text x="534" y="190" text-anchor="middle" font-size="13.5" font-weight="700" fill="var(--ink)">{{t7}}</text>
<text x="534" y="210" text-anchor="middle" font-size="12" fill="var(--muted)">{{t8}}</text>
<line x1="436" y1="195" x2="418" y2="195" stroke="var(--muted)" stroke-width="2" marker-end="url(#arr-ops)"/>
<rect x="230" y="160" width="180" height="70" rx="12" fill="var(--peach)"/>
<text x="320" y="190" text-anchor="middle" font-size="13.5" font-weight="700" fill="var(--ink)">{{t9}}</text>
<text x="320" y="210" text-anchor="middle" font-size="12" fill="var(--muted)">{{t10}}</text>
<line x1="222" y1="195" x2="204" y2="195" stroke="var(--muted)" stroke-width="2" marker-end="url(#arr-ops)"/>
<rect x="16" y="160" width="180" height="70" rx="12" fill="var(--sage)"/>
<text x="106" y="190" text-anchor="middle" font-size="13.5" font-weight="700" fill="var(--on-accent)">{{t11}}</text>
<text x="106" y="210" text-anchor="middle" font-size="12" fill="var(--on-accent)">{{t12}}</text>
</svg>
