<svg viewBox="0 0 640 272" xmlns="http://www.w3.org/2000/svg" role="img" aria-label="{{aria}}">
<text x="243" y="22" text-anchor="middle" font-size="12" font-weight="700" fill="var(--muted)">{{cluster1}}</text>
<text x="551" y="22" text-anchor="middle" font-size="12" font-weight="700" fill="var(--muted)">{{cluster3}}</text>
<rect x="16" y="32" width="146" height="48" rx="10" fill="var(--mint)"/>
<text x="89" y="52" text-anchor="middle" font-size="13" font-weight="700" fill="var(--ink)">{{r1name}}</text>
<text x="89" y="70" text-anchor="middle" font-size="11.5" fill="var(--muted)">{{r1key}}</text>
<rect x="170" y="32" width="146" height="48" rx="10" fill="var(--mint)"/>
<text x="243" y="52" text-anchor="middle" font-size="13" font-weight="700" fill="var(--ink)">{{r2name}}</text>
<text x="243" y="70" text-anchor="middle" font-size="11.5" fill="var(--muted)">{{r2key}}</text>
<rect x="324" y="32" width="146" height="48" rx="10" fill="var(--mint)"/>
<text x="397" y="52" text-anchor="middle" font-size="13" font-weight="700" fill="var(--ink)">{{r3name}}</text>
<text x="397" y="70" text-anchor="middle" font-size="11.5" fill="var(--muted)">{{r3key}}</text>
<line x1="474" y1="14" x2="474" y2="80" stroke="var(--line)" stroke-width="1.5" stroke-dasharray="4 4"/>
<rect x="478" y="32" width="146" height="48" rx="10" fill="var(--sand-2)"/>
<text x="551" y="52" text-anchor="middle" font-size="13" font-weight="700" fill="var(--ink)">{{r8name}}</text>
<text x="551" y="70" text-anchor="middle" font-size="11.5" fill="var(--muted)">{{r8key}}</text>
<text x="320" y="110" text-anchor="middle" font-size="12" font-weight="700" fill="var(--muted)">{{cluster2}}</text>
<rect x="16" y="120" width="146" height="48" rx="10" fill="var(--peach)"/>
<text x="89" y="140" text-anchor="middle" font-size="13" font-weight="700" fill="var(--ink)">{{r4name}}</text>
<text x="89" y="158" text-anchor="middle" font-size="11.5" fill="var(--muted)">{{r4key}}</text>
<rect x="170" y="120" width="146" height="48" rx="10" fill="var(--peach)"/>
<text x="243" y="140" text-anchor="middle" font-size="13" font-weight="700" fill="var(--ink)">{{r5name}}</text>
<text x="243" y="158" text-anchor="middle" font-size="11.5" fill="var(--muted)">{{r5key}}</text>
<rect x="324" y="120" width="146" height="48" rx="10" fill="var(--peach)"/>
<text x="397" y="140" text-anchor="middle" font-size="13" font-weight="700" fill="var(--ink)">{{r6name}}</text>
<text x="397" y="158" text-anchor="middle" font-size="11.5" fill="var(--muted)">{{r6key}}</text>
<rect x="478" y="120" width="146" height="48" rx="10" fill="var(--peach)"/>
<text x="551" y="140" text-anchor="middle" font-size="13" font-weight="700" fill="var(--ink)">{{r7name}}</text>
<text x="551" y="158" text-anchor="middle" font-size="11.5" fill="var(--muted)">{{r7key}}</text>
<text x="166" y="198" text-anchor="middle" font-size="12" font-weight="700" fill="var(--muted)">{{cluster4}}</text>
<rect x="16" y="208" width="146" height="48" rx="10" fill="var(--lilac)"/>
<text x="89" y="228" text-anchor="middle" font-size="13" font-weight="700" fill="var(--ink)">{{r9name}}</text>
<text x="89" y="246" text-anchor="middle" font-size="11.5" fill="var(--muted)">{{r9key}}</text>
<rect x="170" y="208" width="146" height="48" rx="10" fill="var(--lilac)"/>
<text x="243" y="228" text-anchor="middle" font-size="13" font-weight="700" fill="var(--ink)">{{r10name}}</text>
<text x="243" y="246" text-anchor="middle" font-size="11.5" fill="var(--muted)">{{r10key}}</text>
</svg>
