<svg viewBox="0 0 640 300" xmlns="http://www.w3.org/2000/svg" role="img" aria-label="{{aria}}">
<rect x="60" y="36" width="220" height="214" rx="8" fill="var(--sand-2)"/>
<text x="170" y="196" text-anchor="middle" font-size="12" font-style="italic" fill="var(--muted)">{{t1}}</text>
<text x="170" y="212" text-anchor="middle" font-size="12" font-style="italic" fill="var(--muted)">{{t2}}</text>
<line x1="60" y1="250" x2="620" y2="250" stroke="var(--ink)" stroke-width="2"/>
<line x1="60" y1="250" x2="60" y2="30" stroke="var(--ink)" stroke-width="2"/>
<text x="340" y="278" text-anchor="middle" font-size="12.5" fill="var(--muted)">{{t3}}</text>
<text x="44" y="140" text-anchor="middle" font-size="12.5" fill="var(--muted)" transform="rotate(-90 44 140)">{{t4}}</text>
<text x="160" y="266" text-anchor="middle" font-size="12" fill="var(--muted)">{{t5}}</text>
<text x="300" y="266" text-anchor="middle" font-size="12" fill="var(--muted)">{{t6}}</text>
<text x="460" y="266" text-anchor="middle" font-size="12" fill="var(--muted)">{{t7}}</text>
<text x="606" y="266" text-anchor="middle" font-size="12" fill="var(--muted)">{{t8}}</text>
<path d="M60 248 C 160 246, 260 244, 320 238 C 420 228, 520 220, 612 214" fill="none" stroke="var(--clay)" stroke-width="2.5"/>
<path d="M60 249 C 180 248, 280 247, 340 240 C 420 230, 500 160, 612 60" fill="none" stroke="var(--sage)" stroke-width="3"/>
<line x1="400" y1="250" x2="400" y2="120" stroke="var(--muted)" stroke-width="1.5" stroke-dasharray="5 5"/>
<text x="408" y="132" font-size="12" font-style="italic" fill="var(--muted)">{{t9}}</text>
<text x="408" y="148" font-size="12" font-style="italic" fill="var(--muted)">{{t10}}</text>
<text x="408" y="164" font-size="12" font-style="italic" fill="var(--muted)">{{t11}}</text>
<line x1="80" y1="40" x2="112" y2="40" stroke="var(--sage)" stroke-width="3"/>
<text x="120" y="45" font-size="12.5" fill="var(--ink)">{{t12}}</text>
<line x1="80" y1="62" x2="112" y2="62" stroke="var(--clay)" stroke-width="2.5"/>
<text x="120" y="67" font-size="12.5" fill="var(--ink)">{{t13}}</text>
</svg>
