<svg viewBox="0 0 640 260" xmlns="http://www.w3.org/2000/svg" role="img" aria-label="{{aria}}">
<defs><marker id="arr-map" viewBox="0 0 10 10" refX="8" refY="5" markerWidth="7" markerHeight="7" orient="auto"><path d="M0 0 L10 5 L0 10 z" fill="var(--muted)"/></marker></defs>
<rect x="16" y="118" width="86" height="26" rx="13" fill="var(--sage)"/>
<text x="59" y="135" text-anchor="middle" font-size="12.5" fill="var(--on-accent)">{{t1}}</text>
<rect x="16" y="152" width="160" height="88" rx="12" fill="var(--mint)"/>
<text x="96" y="178" text-anchor="middle" font-size="15" font-weight="700" fill="var(--ink)">{{t2}}</text>
<text x="96" y="196" text-anchor="middle" font-size="12.5" fill="var(--muted)">{{t3}}</text>
<text x="96" y="214" text-anchor="middle" font-size="12.5" fill="var(--ink)">{{t4}}</text>
<text x="96" y="230" text-anchor="middle" font-size="12.5" fill="var(--ink)">{{t5}}</text>
<line x1="176" y1="196" x2="224" y2="196" stroke="var(--muted)" stroke-width="2" marker-end="url(#arr-map)"/>
<rect x="232" y="106" width="240" height="134" rx="12" fill="var(--peach)"/>
<text x="352" y="132" text-anchor="middle" font-size="15" font-weight="700" fill="var(--ink)">{{t6}}</text>
<text x="352" y="150" text-anchor="middle" font-size="12.5" fill="var(--muted)">{{t7}}</text>
<text x="352" y="170" text-anchor="middle" font-size="12.5" fill="var(--ink)">{{t8}}</text>
<text x="352" y="186" text-anchor="middle" font-size="12.5" fill="var(--ink)">{{t9}}</text>
<text x="352" y="212" text-anchor="middle" font-size="12" font-style="italic" fill="var(--muted)">{{t10}}</text>
<text x="352" y="228" text-anchor="middle" font-size="12" font-style="italic" fill="var(--muted)">{{t11}}</text>
<line x1="472" y1="160" x2="520" y2="160" stroke="var(--muted)" stroke-width="2" marker-end="url(#arr-map)"/>
<rect x="528" y="56" width="96" height="184" rx="12" fill="var(--lilac)"/>
<text x="576" y="86" text-anchor="middle" font-size="15" font-weight="700" fill="var(--ink)">{{t12}}</text>
<text x="576" y="104" text-anchor="middle" font-size="12.5" fill="var(--muted)">{{t13}}</text>
<text x="576" y="132" text-anchor="middle" font-size="12.5" fill="var(--ink)">{{t14}}</text>
<text x="576" y="148" text-anchor="middle" font-size="12.5" fill="var(--ink)">{{t15}}</text>
<text x="576" y="164" text-anchor="middle" font-size="12.5" fill="var(--ink)">{{t16}}</text>
</svg>
