<svg viewBox="0 0 640 240" xmlns="http://www.w3.org/2000/svg" role="img" aria-label="{{aria}}">
<defs><marker id="arr-tlad" viewBox="0 0 10 10" refX="8" refY="5" markerWidth="7" markerHeight="7" orient="auto"><path d="M0 0 L10 5 L0 10 z" fill="var(--muted)"/></marker></defs>
<rect x="12" y="16" width="146" height="74" rx="12" fill="var(--sage)"/>
<text x="85" y="46" text-anchor="middle" font-size="13" font-weight="700" fill="var(--on-accent)">{{rung_felt}}</text>
<text x="85" y="68" text-anchor="middle" font-size="11.5" fill="var(--on-accent)">{{rung_felt_l}}</text>
<rect x="168" y="16" width="146" height="74" rx="12" fill="var(--mint)"/>
<text x="241" y="46" text-anchor="middle" font-size="13" font-weight="700" fill="var(--ink)">{{rung_trad}}</text>
<text x="241" y="68" text-anchor="middle" font-size="11.5" fill="var(--muted)">{{rung_trad_l}}</text>
<rect x="324" y="16" width="146" height="74" rx="12" fill="var(--peach)"/>
<text x="397" y="46" text-anchor="middle" font-size="13" font-weight="700" fill="var(--ink)">{{rung_studies}}</text>
<text x="397" y="68" text-anchor="middle" font-size="11.5" fill="var(--muted)">{{rung_studies_l}}</text>
<rect x="480" y="16" width="146" height="74" rx="12" fill="var(--clay)"/>
<text x="553" y="46" text-anchor="middle" font-size="13" font-weight="700" fill="var(--on-accent)">{{rung_myth}}</text>
<text x="553" y="68" text-anchor="middle" font-size="11.5" fill="var(--on-accent)">{{rung_myth_l}}</text>
<line x1="85" y1="92" x2="256" y2="184" stroke="var(--muted)" stroke-width="2" marker-end="url(#arr-tlad)"/>
<line x1="241" y1="92" x2="300" y2="184" stroke="var(--muted)" stroke-width="2" marker-end="url(#arr-tlad)"/>
<line x1="397" y1="92" x2="340" y2="184" stroke="var(--muted)" stroke-width="2" marker-end="url(#arr-tlad)"/>
<line x1="553" y1="92" x2="384" y2="184" stroke="var(--muted)" stroke-width="2" marker-end="url(#arr-tlad)"/>
<rect x="170" y="190" width="300" height="44" rx="12" fill="var(--sand-2)" stroke="var(--line)" stroke-width="1"/>
<text x="320" y="217" text-anchor="middle" font-size="13.5" font-weight="700" fill="var(--ink)">{{arbiter}}</text>
</svg>
